<svg width="83" height="83" viewBox="0 0 83 83" fill="none" xmlns="http://www.w3.org/2000/svg">
<g filter="url(#filter0_d_3_72)">
<path d="M45.6804 0C52.5594 0 59.2838 2.05271 65.0035 5.89856C70.7231 9.74441 75.181 15.2107 77.8134 21.6061C80.4459 28.0015 81.1347 35.0388 79.7927 41.8282C78.4506 48.6175 75.1381 54.8539 70.274 59.7487C65.4098 64.6436 59.2125 67.977 52.4658 69.3275C45.719 70.678 38.7258 69.9849 32.3705 67.3358C26.0152 64.6867 20.5832 60.2007 16.7615 54.445C12.9398 48.6892 10.8999 41.9223 10.8999 35C10.8999 25.7174 14.5643 16.815 21.0869 10.2513C27.6095 3.68749 36.4561 0 45.6804 0V0Z" fill="#007BFF"/>
<path d="M33.874 46.4108C34.3212 44.6648 35.0665 42.3108 35.617 41.7588C35.8025 41.5692 36.0235 41.4186 36.2673 41.3156C36.5111 41.2126 36.7727 41.1593 37.0371 41.1588C37.1876 41.1572 37.3377 41.176 37.4832 41.2148C37.5296 41.224 37.5754 41.236 37.6204 41.2508L37.6721 41.2658C37.7178 41.2757 37.7622 41.2911 37.8042 41.3118C37.8324 41.3205 37.8594 41.3325 37.8847 41.3478C37.9414 41.3738 37.997 41.4038 38.0517 41.4348H38.0566C38.13 41.4804 38.201 41.5298 38.2693 41.5828C38.3411 41.634 38.4077 41.6923 38.468 41.7568C38.7458 42.0379 38.9361 42.3945 39.0156 42.7828V42.7928C39.0826 43.1202 39.0676 43.4592 38.972 43.7794C38.8764 44.0995 38.7032 44.3907 38.468 44.6268C37.5949 45.206 36.6306 45.6324 35.616 45.8878C35.3 45.9878 34.1642 46.3278 33.873 46.4088" fill="white" fill-opacity="0.3"/>
<path d="M37.037 41.501C36.817 41.5015 36.5992 41.546 36.3964 41.6318C36.1936 41.7176 36.0097 41.8431 35.8555 42.001C35.1488 43.2173 34.6418 44.5402 34.3539 45.919C34.7872 45.79 35.3169 45.63 35.5166 45.568C36.4863 45.3522 37.4066 44.9531 38.2285 44.392C38.4246 44.1958 38.569 43.9536 38.6488 43.6872C38.7286 43.4208 38.7413 43.1386 38.6856 42.866C38.6856 42.854 38.6856 42.842 38.6796 42.829C38.6101 42.5153 38.4537 42.2279 38.2285 42C38.1816 41.9494 38.1296 41.9039 38.0735 41.864C38.0197 41.8213 37.9636 41.7816 37.9055 41.745L37.8856 41.735C37.8399 41.7089 37.7931 41.6845 37.7455 41.662C37.7286 41.656 37.667 41.627 37.6511 41.62C37.6336 41.612 37.6153 41.6059 37.5965 41.602L37.5349 41.584C37.4971 41.5715 37.4586 41.5615 37.4196 41.554C37.2947 41.5191 37.1656 41.5019 37.036 41.503L37.037 41.501ZM33.874 46.751C33.7848 46.7504 33.6995 46.7145 33.6365 46.651C33.5942 46.609 33.5637 46.5567 33.5478 46.4991C33.532 46.4416 33.5313 46.3809 33.546 46.323C33.717 45.655 34.6083 42.288 35.3765 41.515C35.5933 41.2936 35.8516 41.1177 36.1365 40.9975C36.4214 40.8774 36.7271 40.8153 37.036 40.815C37.2168 40.8136 37.397 40.8368 37.5716 40.884C37.6255 40.8946 37.6786 40.9086 37.7306 40.926L37.7743 40.94C37.8278 40.9517 37.8799 40.9695 37.9294 40.993C37.9736 41.0088 38.0162 41.0289 38.0566 41.053C38.1008 41.0722 38.1439 41.0939 38.1858 41.118C38.2036 41.1257 38.2209 41.1347 38.2374 41.145C38.3209 41.1969 38.4015 41.2533 38.4789 41.314C38.5636 41.3747 38.6422 41.4437 38.7134 41.52C39.035 41.8474 39.255 42.2619 39.3464 42.713C39.3492 42.7252 39.3512 42.7376 39.3524 42.75C39.4251 43.1286 39.4043 43.5193 39.2918 43.8879C39.1794 44.2565 38.9787 44.5917 38.7075 44.864C38.5713 45.002 38.154 45.427 35.7183 46.209C35.3983 46.309 34.2556 46.653 33.9634 46.734C33.9339 46.7419 33.9035 46.746 33.873 46.746" fill="white"/>
<path d="M38.0526 41.436C37.9992 41.4028 37.9434 41.3737 37.8856 41.349C37.8604 41.3337 37.8333 41.3216 37.8052 41.313C37.7627 41.2932 37.7185 41.2778 37.673 41.267L37.6213 41.252C37.6057 41.2428 37.589 41.2357 37.5716 41.231C38.5666 39.6622 39.6831 38.1749 40.9106 36.783C41.4338 37.1125 41.9191 37.4996 42.3574 37.937C42.8066 38.3889 43.2015 38.8923 43.534 39.437C42.1284 40.6949 40.6207 41.8323 39.0264 42.837C39.0258 42.8213 39.0228 42.8058 39.0175 42.791V42.781C38.938 42.3927 38.7477 42.0361 38.47 41.755C38.4096 41.6905 38.343 41.6322 38.2712 41.581C38.2042 41.5262 38.1331 41.4768 38.0586 41.433H38.0536" fill="white"/>
<path d="M38.1977 41.1278C38.2067 41.1318 38.2153 41.1365 38.2236 41.1418C38.3136 41.1942 38.3993 41.2537 38.48 41.3198C38.5647 41.3805 38.6433 41.4495 38.7145 41.5258C38.9373 41.7526 39.1124 42.0223 39.2292 42.3188C40.5818 41.4275 41.8721 40.4438 43.0909 39.3748C42.8064 38.945 42.4802 38.5447 42.117 38.1798C41.7656 37.829 41.3823 37.5119 40.9722 37.2328C39.9232 38.4441 38.9546 39.7235 38.0725 41.0628C38.1156 41.0811 38.1574 41.1022 38.1977 41.1258V41.1278ZM39.0265 43.1818C38.9676 43.1816 38.9098 43.1661 38.8586 43.1368C38.813 43.1107 38.7742 43.0742 38.7452 43.0303C38.7162 42.9864 38.6978 42.9362 38.6916 42.8838C38.6868 42.8658 38.6835 42.8474 38.6817 42.8288C38.6124 42.5148 38.4559 42.2269 38.2305 41.9988C38.1836 41.9482 38.1317 41.9027 38.0755 41.8628C38.0248 41.8214 37.9717 41.783 37.9165 41.7478C37.9003 41.7408 37.8847 41.7324 37.8698 41.7228C37.8308 41.6988 37.7899 41.6781 37.7476 41.6608C37.72 41.6515 37.6933 41.6395 37.6681 41.6248C37.6455 41.6141 37.6218 41.6058 37.5975 41.5998L37.5359 41.5818C37.5009 41.5715 37.4675 41.5563 37.4365 41.5368C37.3902 41.523 37.3479 41.498 37.3132 41.464C37.2786 41.43 37.2527 41.3881 37.2378 41.3418C37.2226 41.2938 37.2188 41.2428 37.2265 41.193C37.2343 41.1432 37.2535 41.0959 37.2825 41.0548C38.2876 39.4699 39.4153 37.9672 40.6552 36.5608C40.7082 36.4996 40.7812 36.4595 40.861 36.4475C40.9407 36.4356 41.0221 36.4527 41.0905 36.4958C41.6347 36.8388 42.1396 37.2412 42.596 37.6958C43.0628 38.1681 43.4727 38.6941 43.8173 39.2628C43.8592 39.3315 43.8756 39.4129 43.8634 39.4926C43.8512 39.5723 43.8112 39.645 43.7507 39.6978C42.3295 40.9693 40.8051 42.119 39.1935 43.1348C39.1418 43.1657 39.0827 43.182 39.0225 43.1818" fill="white"/>
<path d="M42.3564 37.9388C41.9181 37.5014 41.4329 37.1143 40.9096 36.7848C43.5781 33.674 46.6039 30.8929 49.9237 28.4998C51.8575 27.1818 52.7866 26.9318 53.1374 26.9318C53.1923 26.9254 53.2477 26.9381 53.2944 26.9678C53.3938 27.0678 53.4107 27.9168 51.772 30.3548C50.5881 32.0119 49.3048 33.5949 47.9293 35.0948C47.7156 35.3288 46.2399 36.9178 46.0203 37.1528C45.1826 38.0008 44.4005 38.6528 43.536 39.4408C43.2035 38.8961 42.8086 38.3927 42.3594 37.9408" fill="white" fill-opacity="0.3"/>
<path d="M41.4244 36.7219C41.8434 37.0125 42.2359 37.3401 42.597 37.7009C42.97 38.0764 43.3074 38.4862 43.6046 38.9249C43.7487 38.7949 43.8918 38.6689 44.0329 38.5429C44.6343 38.0203 45.218 37.4773 45.7829 36.9149L45.9518 36.7329C46.4099 36.2399 47.501 35.0649 47.6829 34.8659C49.0483 33.3796 50.3214 31.81 51.4948 30.1659C52.1558 29.308 52.6562 28.3361 52.9715 27.2979C51.9363 27.6123 50.9677 28.1164 50.1145 28.7849C46.9175 31.0768 44.0008 33.741 41.4254 36.7219H41.4244ZM43.535 39.7829C43.5188 39.784 43.5026 39.784 43.4863 39.7829C43.4374 39.7759 43.3905 39.758 43.3491 39.7307C43.3078 39.7034 43.2728 39.6673 43.2469 39.6249C42.9286 39.1022 42.55 38.6192 42.119 38.1859C41.6973 37.7663 41.2307 37.395 40.7278 37.0789C40.6862 37.0525 40.6508 37.0173 40.6242 36.9756C40.5976 36.934 40.5804 36.887 40.5737 36.8379C40.5667 36.789 40.5705 36.7391 40.5847 36.6917C40.599 36.6444 40.6234 36.6008 40.6562 36.5639C43.3378 33.428 46.385 30.6285 49.7319 28.2259C51.8088 26.8089 52.7559 26.5979 53.1355 26.5979C53.2074 26.5924 53.2797 26.6016 53.3481 26.625C53.4164 26.6483 53.4793 26.6854 53.5329 26.7339C53.9384 27.1419 53.3839 28.5689 52.0513 30.5519C50.8578 32.2187 49.5656 33.8116 48.1817 35.3219L46.4437 37.1959L46.2678 37.3839C45.6517 38.0069 45.0823 38.5129 44.4791 39.0499C44.2436 39.2579 44.0061 39.4699 43.7606 39.6919C43.6986 39.7486 43.6178 39.78 43.534 39.7799L43.535 39.7829ZM29.9209 23.2869H30.234L61.6358 23.6799V15.2259C61.6262 15.1588 61.5909 15.098 61.5375 15.0565C61.484 15.0151 61.4166 14.9962 61.3496 15.0039H30.2012C30.135 14.9976 30.0688 15.0171 30.0165 15.0584C29.9642 15.0997 29.9296 15.1597 29.92 15.2259L29.9209 23.2869ZM61.9737 24.3599H61.3188L29.5821 23.9669C29.5376 23.9669 29.4936 23.9581 29.4526 23.941C29.4115 23.9238 29.3742 23.8987 29.3428 23.867C29.3114 23.8353 29.2866 23.7977 29.2697 23.7564C29.2527 23.715 29.2441 23.6707 29.2442 23.6259V15.2259C29.2533 14.9792 29.359 14.746 29.5383 14.5774C29.7176 14.4088 29.9559 14.3184 30.2012 14.3259H61.3486C61.5945 14.3178 61.8337 14.4079 62.0139 14.5765C62.1941 14.7451 62.3007 14.9785 62.3106 15.2259V24.0199C62.3106 24.1102 62.275 24.1968 62.2117 24.2607C62.1483 24.3246 62.0624 24.3607 61.9727 24.3609" fill="white"/>
<path d="M29.921 46.0709H33.6127C33.884 45.0489 34.6809 42.2189 35.3765 41.5179C35.5933 41.2965 35.8517 41.1206 36.1365 41.0004C36.4214 40.8802 36.7272 40.8182 37.0361 40.8179C37.1599 40.8175 37.2836 40.8279 37.4057 40.8489C38.3835 39.3415 39.4688 37.9078 40.6532 36.5589C43.3356 33.4211 46.3838 30.6199 49.7319 28.2159C50.6519 27.5056 51.6913 26.9677 52.8006 26.6279L52.8294 24.2509L29.919 23.9649L29.921 46.0709ZM33.875 46.7509H29.5821C29.5377 46.7509 29.4938 46.7421 29.4528 46.725C29.4118 46.7079 29.3746 46.6829 29.3432 46.6513C29.3118 46.6197 29.2869 46.5822 29.27 46.541C29.253 46.4997 29.2442 46.4555 29.2442 46.4109V23.6269C29.2442 23.5367 29.2798 23.4502 29.3432 23.3864C29.4066 23.3227 29.4925 23.2869 29.5821 23.2869H30.234L53.1742 23.5779C53.2639 23.5792 53.3494 23.6162 53.412 23.6809C53.4746 23.7456 53.5092 23.8326 53.5081 23.9229L53.4723 26.9349C53.471 27.0243 53.4349 27.1096 53.3717 27.1724C53.3085 27.2353 53.2233 27.2706 53.1345 27.2709C52.9993 27.2709 52.2192 27.3439 50.1106 28.7809C46.8096 31.1527 43.8045 33.916 41.16 37.0109C39.9901 38.3415 38.9196 39.7573 37.9573 41.2469C37.9578 41.301 37.9455 41.3544 37.9215 41.4029C37.8849 41.4772 37.8226 41.5356 37.7464 41.5671C37.6701 41.5986 37.585 41.601 37.5071 41.5739C37.4782 41.5645 37.4486 41.5571 37.4186 41.5519C37.1419 41.4784 36.8506 41.4811 36.5753 41.5598C36.2999 41.6384 36.0507 41.7901 35.8535 41.9989C35.0656 43.3998 34.507 44.9192 34.199 46.4989C34.1802 46.572 34.1378 46.6367 34.0784 46.6829C34.019 46.7291 33.9461 46.754 33.871 46.7539" fill="white"/>
<path d="M29.9209 46.7508V54.8078C29.9315 54.8735 29.9661 54.9327 30.018 54.9738C30.0699 55.015 30.1353 55.0349 30.2012 55.0298H61.3486C61.4155 55.0365 61.4823 55.0173 61.5355 54.976C61.5887 54.9347 61.6243 54.8746 61.6348 54.8078V24.3608H61.3178L53.5061 24.2608L53.4773 26.6778C53.497 26.6916 53.5156 26.707 53.5329 26.7238C53.9384 27.1318 53.3839 28.5588 52.0513 30.5418C50.8577 32.211 49.5652 33.8062 48.1807 35.3188L46.4427 37.1928L46.2678 37.3808C45.6905 37.9564 45.094 38.5121 44.4791 39.0468C44.2436 39.2548 44.0061 39.4668 43.7616 39.6888C42.3913 40.9092 40.9295 42.0215 39.3892 43.0158C39.4154 43.3554 39.368 43.6966 39.2505 44.016C39.133 44.3354 38.9481 44.6253 38.7085 44.8658C38.5724 45.0038 38.155 45.4288 35.7194 46.2108C35.3994 46.3108 34.2566 46.6548 33.9644 46.7358C33.9349 46.7438 33.9045 46.7478 33.874 46.7478L29.9209 46.7508ZM61.3486 55.7098H30.2012C29.9559 55.7174 29.7176 55.627 29.5383 55.4584C29.359 55.2898 29.2533 55.0566 29.2442 54.8098V46.4098C29.2442 46.3197 29.2798 46.2332 29.3432 46.1694C29.4065 46.1056 29.4925 46.0698 29.5821 46.0698H33.8283C34.1721 45.9698 35.2195 45.6568 35.5176 45.5648C36.4873 45.3489 37.4076 44.9498 38.2295 44.3888C38.4256 44.1926 38.5701 43.9504 38.6499 43.684C38.7297 43.4176 38.7423 43.1354 38.6866 42.8628C38.6687 42.7775 38.6839 42.6884 38.7292 42.614C38.7745 42.5396 38.8464 42.4855 38.9301 42.4628C38.9564 42.4558 38.9834 42.4517 39.0106 42.4508C40.5277 41.4747 41.9667 40.3807 43.3144 39.1788C43.5559 38.9598 43.7954 38.7458 44.0319 38.5358C44.6281 38.0068 45.1896 37.5078 45.7819 36.9078L45.9508 36.7258C46.4089 36.2338 47.501 35.0588 47.6819 34.8588C49.0472 33.3724 50.3203 31.8028 51.4938 30.1588C52.1809 29.29 52.6878 28.2913 52.9844 27.2218C52.9577 27.2075 52.9333 27.1893 52.9119 27.1678C52.845 27.104 52.8054 27.0165 52.8016 26.9238L52.8373 23.9108C52.8381 23.8211 52.8738 23.7354 52.9367 23.6718C52.9679 23.6395 53.0053 23.6139 53.0466 23.5967C53.088 23.5795 53.1324 23.571 53.1772 23.5718L61.9737 23.6718C62.0633 23.6718 62.1492 23.7076 62.2126 23.7714C62.276 23.8352 62.3116 23.9217 62.3116 24.0118V54.7998C62.3017 55.0472 62.1951 55.2807 62.0149 55.4493C61.8347 55.6179 61.5955 55.7079 61.3496 55.6998" fill="white"/>
<path d="M29.5821 47.3498C29.5376 47.3498 29.4936 47.341 29.4525 47.3239C29.4115 47.3067 29.3742 47.2816 29.3428 47.2499C29.3114 47.2182 29.2866 47.1806 29.2696 47.1393C29.2527 47.0979 29.2441 47.0536 29.2442 47.0088V40.1808C29.2441 40.1361 29.2527 40.0918 29.2696 40.0504C29.2866 40.0091 29.3114 39.9715 29.3428 39.9398C29.3742 39.9081 29.4115 39.883 29.4525 39.8658C29.4936 39.8487 29.5376 39.8398 29.5821 39.8398C29.6266 39.8397 29.6707 39.8484 29.7119 39.8655C29.7531 39.8826 29.7905 39.9077 29.822 39.9394C29.8535 39.9711 29.8784 40.0088 29.8954 40.0502C29.9124 40.0916 29.9211 40.136 29.9209 40.1808V47.0088C29.9211 47.0537 29.9124 47.0981 29.8954 47.1395C29.8784 47.1809 29.8535 47.2186 29.822 47.2503C29.7905 47.282 29.7531 47.3071 29.7119 47.3242C29.6707 47.3412 29.6266 47.35 29.5821 47.3498Z" fill="white"/>
<path d="M61.3486 55.7099H57.3131C57.2235 55.7099 57.1375 55.6741 57.0742 55.6104C57.0108 55.5466 56.9752 55.4601 56.9752 55.3699C56.9752 55.3253 56.984 55.2811 57.0009 55.2398C57.0179 55.1986 57.0428 55.1611 57.0742 55.1295C57.1056 55.098 57.1428 55.0729 57.1838 55.0558C57.2248 55.0387 57.2687 55.0299 57.3131 55.0299H61.3486C61.4155 55.0367 61.4823 55.0174 61.5355 54.9761C61.5887 54.9349 61.6243 54.8747 61.6348 54.8079V15.2259C61.6252 15.1588 61.5899 15.098 61.5365 15.0565C61.483 15.0151 61.4157 14.9962 61.3486 15.0039H30.2012C30.135 14.9976 30.0688 15.0171 30.0165 15.0584C29.9642 15.0997 29.9296 15.1597 29.92 15.2259V40.1809C29.92 40.2257 29.9112 40.27 29.8941 40.3113C29.8771 40.3526 29.8521 40.3901 29.8206 40.4217C29.7892 40.4533 29.7518 40.4783 29.7107 40.4954C29.6696 40.5124 29.6255 40.5211 29.5811 40.5209C29.4915 40.5209 29.4055 40.4851 29.3422 40.4214C29.2788 40.3576 29.2432 40.2711 29.2432 40.1809V15.2259C29.2523 14.9792 29.358 14.746 29.5373 14.5774C29.7166 14.4088 29.9549 14.3184 30.2002 14.3259H61.3476C61.5936 14.3178 61.8327 14.4079 62.0129 14.5765C62.1931 14.7451 62.2997 14.9785 62.3096 15.2259V54.8079C62.2997 55.0553 62.1931 55.2888 62.0129 55.4574C61.8327 55.626 61.5936 55.7161 61.3476 55.7079" fill="white"/>
<path d="M57.3131 55.71H30.2012C29.9559 55.7176 29.7176 55.6272 29.5383 55.4586C29.359 55.29 29.2533 55.0568 29.2442 54.81V47.01C29.2442 46.9654 29.253 46.9212 29.27 46.8799C29.2869 46.8387 29.3118 46.8012 29.3432 46.7696C29.3746 46.738 29.4118 46.713 29.4528 46.6959C29.4938 46.6788 29.5377 46.67 29.5821 46.67C29.6266 46.6699 29.6706 46.6786 29.7117 46.6956C29.7528 46.7127 29.7902 46.7377 29.8217 46.7693C29.8531 46.8008 29.8781 46.8384 29.8952 46.8797C29.9122 46.921 29.921 46.9653 29.921 47.01V54.81C29.9315 54.8758 29.9663 54.9352 30.0184 54.9764C30.0705 55.0175 30.1362 55.0374 30.2022 55.032H57.3131C57.3575 55.032 57.4014 55.0408 57.4424 55.0579C57.4834 55.075 57.5206 55.1 57.552 55.1316C57.5834 55.1632 57.6083 55.2007 57.6253 55.2419C57.6422 55.2832 57.651 55.3274 57.651 55.372C57.651 55.4167 57.6422 55.4609 57.6253 55.5021C57.6083 55.5434 57.5834 55.5809 57.552 55.6124C57.5206 55.644 57.4834 55.6691 57.4424 55.6861C57.4014 55.7032 57.3575 55.712 57.3131 55.712V55.71ZM61.3178 24.361L30.236 23.968C30.1463 23.9667 30.0608 23.9297 29.9982 23.865C29.9356 23.8003 29.901 23.7133 29.9021 23.623C29.9031 23.5335 29.9392 23.4481 30.0024 23.3852C30.0657 23.3223 30.151 23.287 30.24 23.287L61.3218 23.68C61.4113 23.6813 61.4967 23.7183 61.5593 23.7827C61.6218 23.8472 61.6565 23.9339 61.6557 24.024C61.6544 24.1136 61.6181 24.1991 61.5547 24.2619C61.4913 24.3248 61.4059 24.36 61.3168 24.36L61.3178 24.361ZM51.0258 19.912C50.9372 19.912 50.8522 19.877 50.789 19.8146C50.7258 19.7521 50.6895 19.6672 50.6879 19.578C50.687 19.5334 50.6948 19.4891 50.711 19.4475C50.7271 19.406 50.7513 19.368 50.782 19.3359C50.8127 19.3038 50.8495 19.278 50.8901 19.2602C50.9308 19.2424 50.9745 19.2328 51.0188 19.232L54.8944 19.155H54.9013C54.9899 19.155 55.075 19.19 55.1382 19.2525C55.2013 19.315 55.2376 19.3999 55.2392 19.489C55.2401 19.5336 55.2323 19.578 55.2161 19.6195C55.2 19.6611 55.1759 19.699 55.1451 19.7312C55.1144 19.7633 55.0776 19.789 55.037 19.8068C54.9963 19.8247 54.9526 19.8342 54.9083 19.835L51.0327 19.912H51.0258ZM48.5425 19.912H36.0473C36.0028 19.9122 35.9586 19.9034 35.9175 19.8863C35.8763 19.8693 35.8389 19.8441 35.8074 19.8124C35.7759 19.7808 35.751 19.7431 35.734 19.7017C35.717 19.6602 35.7083 19.6158 35.7084 19.571C35.7084 19.5263 35.7172 19.482 35.7343 19.4407C35.7513 19.3994 35.7763 19.3618 35.8078 19.3303C35.8392 19.2987 35.8766 19.2737 35.9177 19.2566C35.9588 19.2396 36.0028 19.2309 36.0473 19.231H48.5425C48.5869 19.2309 48.6309 19.2396 48.6721 19.2566C48.7132 19.2737 48.7505 19.2987 48.782 19.3303C48.8135 19.3618 48.8385 19.3994 48.8555 19.4407C48.8725 19.482 48.8813 19.5263 48.8813 19.571C48.8814 19.6158 48.8728 19.6602 48.8558 19.7017C48.8388 19.7431 48.8139 19.7808 48.7824 19.8124C48.7509 19.8441 48.7135 19.8693 48.6723 19.8863C48.6311 19.9034 48.587 19.9122 48.5425 19.912ZM43.5351 39.78C43.4878 39.7801 43.4411 39.7702 43.398 39.7509C43.3548 39.7316 43.3162 39.7034 43.2846 39.668C43.2247 39.601 43.1937 39.5129 43.1983 39.4229C43.203 39.3328 43.243 39.2484 43.3095 39.188C43.5569 38.964 43.7964 38.751 44.0329 38.54C44.6343 38.0174 45.218 37.4744 45.7829 36.912C45.8142 36.8804 45.8515 36.8554 45.8925 36.8383C45.9335 36.8212 45.9775 36.8124 46.0219 36.8124C46.0662 36.8124 46.1102 36.8212 46.1512 36.8383C46.1922 36.8554 46.2295 36.8804 46.2609 36.912C46.2922 36.9436 46.3172 36.9811 46.3342 37.0224C46.3511 37.0636 46.3599 37.1079 46.3599 37.1525C46.3599 37.1972 46.3511 37.2414 46.3342 37.2827C46.3172 37.324 46.2922 37.3615 46.2609 37.393C45.6858 37.9658 45.0915 38.5188 44.4791 39.051C44.2387 39.2636 43.9995 39.4776 43.7616 39.693C43.6995 39.7495 43.6188 39.7809 43.5351 39.781" fill="white"/>
<path d="M46.0204 37.492C45.9347 37.492 45.8523 37.4591 45.7899 37.4C45.7574 37.3696 45.7313 37.333 45.7129 37.2924C45.6946 37.2518 45.6843 37.2079 45.6829 37.1633C45.6814 37.1187 45.6887 37.0743 45.7043 37.0325C45.7199 36.9908 45.7436 36.9525 45.774 36.92L45.9508 36.729C46.4089 36.235 47.4991 35.063 47.6799 34.865C47.7099 34.832 47.7461 34.8053 47.7863 34.7863C47.8266 34.7674 47.8702 34.7567 47.9146 34.7547C47.959 34.7528 48.0033 34.7597 48.0451 34.775C48.0868 34.7903 48.1252 34.8138 48.1579 34.844C48.2239 34.9051 48.2632 34.99 48.2671 35.0802C48.271 35.1703 48.2393 35.2584 48.1788 35.325C47.9969 35.525 46.9048 36.699 46.4447 37.194L46.2678 37.384C46.2364 37.4182 46.1983 37.4454 46.1559 37.464C46.1134 37.4826 46.0677 37.4921 46.0214 37.492" fill="white"/>
<path d="M40.9126 37.122C40.8293 37.122 40.749 37.091 40.687 37.035C40.6202 36.9749 40.5799 36.8906 40.5749 36.8006C40.5698 36.7106 40.6005 36.6222 40.6602 36.555C43.3418 33.4191 46.389 30.6196 49.7359 28.217C51.8128 26.8 52.7599 26.589 53.1395 26.589C53.2114 26.5834 53.2837 26.5926 53.3521 26.616C53.4204 26.6394 53.4833 26.6764 53.5369 26.725C53.9424 27.133 53.3879 28.56 52.0553 30.543C50.8608 32.2129 49.5673 33.8088 48.1817 35.322C48.1216 35.3886 48.0378 35.4287 47.9485 35.4335C47.8593 35.4384 47.7717 35.4077 47.7047 35.348C47.6381 35.2878 47.5979 35.2034 47.5931 35.1134C47.5882 35.0233 47.6191 34.9351 47.6789 34.868C49.045 33.3816 50.3187 31.812 51.4928 30.168C52.1538 29.31 52.6542 28.3382 52.9695 27.3C51.9343 27.6143 50.9657 28.1184 50.1126 28.787C46.8113 31.1588 43.8058 33.9221 41.161 37.017C41.1294 37.0529 41.0906 37.0817 41.047 37.1013C41.0035 37.121 40.9563 37.1311 40.9086 37.131L40.9126 37.122ZM37.8042 41.655C37.7518 41.6551 37.7 41.6428 37.6532 41.619C37.6354 41.6109 37.6167 41.6049 37.5975 41.601C37.5542 41.5912 37.5132 41.5729 37.4769 41.5471C37.4406 41.5213 37.4097 41.4886 37.3859 41.4508C37.3622 41.413 37.3461 41.3708 37.3386 41.3268C37.3311 41.2827 37.3323 41.2376 37.3421 41.194C37.3618 41.1061 37.4154 41.0297 37.491 40.9815C37.5667 40.9333 37.6582 40.9173 37.7456 40.937C37.8183 40.9528 37.8887 40.9776 37.9553 41.011C38.0354 41.0513 38.0963 41.122 38.1246 41.2075C38.1529 41.293 38.1463 41.3863 38.1063 41.467C38.0786 41.5228 38.0361 41.5699 37.9835 41.6031C37.9309 41.6363 37.8703 41.6542 37.8082 41.655" fill="white"/>
<path d="M38.0516 41.7769C37.9942 41.7769 37.9377 41.7621 37.8876 41.7339C37.8418 41.7078 37.7951 41.6835 37.7475 41.6609C37.6658 41.624 37.602 41.556 37.57 41.4719C37.538 41.3878 37.5403 41.2943 37.5766 41.2119C37.6133 41.1297 37.6808 41.0655 37.7644 41.0333C37.848 41.0011 37.9409 41.0035 38.0228 41.0399C38.0883 41.0699 38.1529 41.1039 38.2215 41.1399C38.2996 41.1839 38.3571 41.2572 38.3815 41.3438C38.4059 41.4304 38.3952 41.5232 38.3517 41.6019C38.3221 41.6552 38.2788 41.6994 38.2263 41.73C38.1739 41.7606 38.1142 41.7765 38.0536 41.7759" fill="white"/>
<path d="M38.2753 41.9258C38.1986 41.9257 38.1242 41.8993 38.0646 41.8508C38.0056 41.8052 37.9442 41.7628 37.8807 41.7238C37.8057 41.6747 37.7531 41.5976 37.7344 41.5095C37.7158 41.4214 37.7327 41.3294 37.7814 41.2538C37.8302 41.1783 37.9068 41.1253 37.9943 41.1066C38.0819 41.0878 38.1733 41.1048 38.2484 41.1538C38.3319 41.2057 38.4125 41.2621 38.4899 41.3228C38.5246 41.3506 38.5536 41.3851 38.5751 41.4242C38.5966 41.4633 38.6102 41.5062 38.6152 41.5506C38.6202 41.595 38.6164 41.64 38.6041 41.6829C38.5918 41.7258 38.5712 41.7659 38.5436 41.8008C38.5119 41.8408 38.4717 41.8731 38.426 41.8953C38.3802 41.9175 38.33 41.9289 38.2792 41.9288" fill="white"/>
<path d="M39.0264 43.1818C38.9675 43.1816 38.9097 43.1661 38.8585 43.1368C38.8129 43.1107 38.7741 43.0742 38.7451 43.0303C38.7161 42.9863 38.6978 42.9362 38.6916 42.8838C38.6695 42.8 38.68 42.7109 38.721 42.6347C38.762 42.5585 38.8304 42.501 38.9122 42.4738C38.9443 42.4632 38.9778 42.4575 39.0115 42.4568C40.4485 41.5349 41.8138 40.5046 43.0958 39.3748C42.8113 38.945 42.485 38.5447 42.1219 38.1798C41.7703 37.8288 41.3867 37.5117 40.9761 37.2328C39.8778 38.4972 38.8706 39.839 37.9622 41.2478C37.9629 41.3159 37.9435 41.3827 37.9065 41.4398C37.8608 41.5101 37.7908 41.5608 37.71 41.5822C37.6293 41.6037 37.5435 41.5942 37.4693 41.5558C37.4235 41.5383 37.3818 41.5115 37.3467 41.4771C37.3117 41.4427 37.2841 41.4014 37.2656 41.3558C37.2459 41.3076 37.2375 41.2555 37.241 41.2035C37.2444 41.1515 37.2596 41.101 37.2854 41.0558C38.2905 39.4709 39.4183 37.9682 40.6581 36.5618C40.7111 36.5006 40.7841 36.4604 40.8639 36.4485C40.9436 36.4366 41.025 36.4537 41.0934 36.4968C41.6376 36.8398 42.1425 37.2422 42.5989 37.6968C43.0672 38.1679 43.4788 38.6928 43.8252 39.2608C43.8671 39.3295 43.8834 39.4109 43.8713 39.4906C43.8591 39.5703 43.8191 39.643 43.7586 39.6958C42.3374 40.9673 40.813 42.117 39.2013 43.1328C39.1496 43.1637 39.0906 43.1799 39.0304 43.1798" fill="white"/>
<path d="M37.037 41.501C36.817 41.5015 36.5992 41.546 36.3964 41.6318C36.1936 41.7176 36.0097 41.8431 35.8555 42.001C35.1488 43.2173 34.6418 44.5402 34.3539 45.919C34.7872 45.79 35.3169 45.63 35.5166 45.568C36.4863 45.3522 37.4066 44.9531 38.2285 44.392C38.4246 44.1958 38.569 43.9536 38.6488 43.6872C38.7286 43.4208 38.7413 43.1386 38.6856 42.866C38.6856 42.854 38.6856 42.842 38.6796 42.829C38.6101 42.5153 38.4537 42.2279 38.2285 42C38.1816 41.9494 38.1296 41.9039 38.0735 41.864C38.0227 41.8226 37.9696 41.7842 37.9145 41.749C37.8982 41.742 37.8826 41.7336 37.8678 41.724C37.8284 41.7 37.7872 41.6793 37.7445 41.662C37.7172 41.6527 37.6909 41.6406 37.666 41.626C37.6434 41.6153 37.6198 41.607 37.5955 41.601L37.5339 41.583C37.4961 41.5705 37.4576 41.5605 37.4186 41.553C37.2944 41.518 37.166 41.5005 37.037 41.501ZM33.874 46.751C33.7848 46.7504 33.6995 46.7145 33.6365 46.651C33.5942 46.609 33.5637 46.5567 33.5478 46.4991C33.532 46.4416 33.5313 46.3809 33.546 46.323C33.717 45.655 34.6083 42.288 35.3765 41.515C35.5933 41.2936 35.8516 41.1177 36.1365 40.9975C36.4214 40.8774 36.7271 40.8153 37.036 40.815C37.2168 40.8136 37.397 40.8368 37.5716 40.884C37.6255 40.8946 37.6786 40.9086 37.7306 40.926L37.7743 40.94C37.8309 40.9533 37.8859 40.9728 37.9383 40.998C37.9798 41.0113 38.0196 41.0298 38.0566 41.053C38.1046 41.0728 38.1511 41.0962 38.1957 41.123C38.2046 41.1271 38.2133 41.1317 38.2215 41.137C38.3115 41.1894 38.3973 41.2489 38.4779 41.315C38.5626 41.3757 38.6412 41.4447 38.7124 41.521C39.034 41.8484 39.254 42.2629 39.3454 42.714C39.3482 42.7262 39.3502 42.7386 39.3514 42.751C39.4241 43.1296 39.4033 43.5203 39.2908 43.8889C39.1784 44.2575 38.9777 44.5927 38.7065 44.865C38.5703 45.003 38.153 45.428 35.7173 46.21C35.3973 46.31 34.2546 46.654 33.9624 46.735C33.9329 46.7429 33.9025 46.747 33.872 46.747L33.874 46.751ZM55.9685 44.581C55.9241 44.581 55.8801 44.5722 55.839 44.555C55.798 44.5379 55.7607 44.5127 55.7293 44.4811C55.6979 44.4494 55.673 44.4118 55.6561 44.3704C55.6392 44.3291 55.6305 44.2847 55.6307 44.24V42.565C55.6307 42.4748 55.6663 42.3883 55.7296 42.3246C55.793 42.2608 55.8789 42.225 55.9685 42.225C56.013 42.2249 56.057 42.2336 56.0981 42.2506C56.1392 42.2676 56.1766 42.2926 56.2081 42.3242C56.2396 42.3558 56.2645 42.3933 56.2816 42.4347C56.2986 42.476 56.3074 42.5203 56.3074 42.565V44.24C56.3075 44.2848 56.2989 44.3292 56.2819 44.3707C56.2649 44.4121 56.2399 44.4497 56.2084 44.4814C56.1769 44.5131 56.1395 44.5382 56.0984 44.5553C56.0572 44.5724 56.0131 44.5811 55.9685 44.581ZM53.05 52.253C52.2209 52.2642 51.4144 51.981 50.7723 51.453C50.4709 51.2163 50.226 50.9146 50.0559 50.57C49.8858 50.2254 49.7948 49.8467 49.7895 49.462V47.853C49.7895 47.605 49.5143 47.396 49.1883 47.396C49.0268 47.394 48.8698 47.4496 48.7451 47.553C48.6969 47.5871 48.6571 47.6318 48.6288 47.6839C48.6006 47.7359 48.5846 47.7938 48.5821 47.853C48.5776 48.2367 48.4875 48.6145 48.3186 48.9585C48.1497 49.3026 47.9063 49.6041 47.6063 49.841C46.959 50.3642 46.151 50.6446 45.3207 50.634C44.4905 50.6446 43.6825 50.3642 43.0352 49.841C42.7358 49.6036 42.4928 49.3019 42.324 48.958C42.1552 48.6141 42.0647 48.2366 42.0593 47.853C42.0589 47.7946 42.0451 47.7372 42.0189 47.6851C41.9927 47.6331 41.9548 47.5878 41.9083 47.553C41.7793 47.4524 41.6208 47.3978 41.4576 47.3978C41.2944 47.3978 41.1359 47.4524 41.007 47.553C40.96 47.5881 40.9213 47.6332 40.8937 47.685C40.866 47.7369 40.8501 47.7942 40.847 47.853C40.8425 48.2359 40.7532 48.6129 40.5856 48.9566C40.418 49.3004 40.1763 49.6022 39.8781 49.84C39.2298 50.3617 38.4225 50.6421 37.5925 50.634C37.1207 50.6146 36.6591 50.4906 36.2404 50.2709C35.8218 50.0512 35.4566 49.7412 35.1708 49.363C34.8948 49.0474 34.6545 48.702 34.4543 48.333C34.4163 48.2513 34.4122 48.1578 34.4428 48.073C34.4733 47.9883 34.5361 47.9192 34.6173 47.881C34.6979 47.8432 34.79 47.839 34.8737 47.8691C34.9574 47.8992 35.026 47.9614 35.0645 48.042C35.2385 48.3537 35.4443 48.6462 35.6786 48.915C35.9028 49.2181 36.1902 49.4681 36.5207 49.6474C36.8512 49.8268 37.2167 49.9311 37.5915 49.953C38.2631 49.9607 38.9169 49.7354 39.4428 49.315C39.664 49.1407 39.8437 48.9189 39.9688 48.6658C40.094 48.4127 40.1614 48.1347 40.1663 47.852C40.1677 47.6945 40.2042 47.5393 40.273 47.3977C40.3418 47.2562 40.4411 47.1319 40.5637 47.034C40.8157 46.8332 41.1277 46.7239 41.4492 46.7239C41.7706 46.7239 42.0826 46.8332 42.3346 47.034C42.456 47.132 42.5542 47.256 42.6219 47.397C42.6896 47.538 42.7252 47.6924 42.7261 47.849C42.7322 48.1325 42.801 48.4111 42.9276 48.6645C43.0541 48.9179 43.2351 49.1398 43.4575 49.314C43.9821 49.7352 44.6358 49.96 45.3068 49.95C45.9783 49.9598 46.6323 49.7346 47.1571 49.313C47.3795 49.1392 47.5604 48.9175 47.6866 48.6641C47.8128 48.4108 47.8811 48.1323 47.8865 47.849C47.8884 47.6909 47.9255 47.5352 47.9952 47.3934C48.0648 47.2517 48.1653 47.1275 48.289 47.03C48.5348 46.8213 48.8468 46.7081 49.1684 46.711C49.4873 46.6929 49.8005 46.8022 50.0397 47.0151C50.279 47.228 50.4252 47.5273 50.4464 47.848V49.457C50.4527 49.7419 50.5223 50.0218 50.6503 50.276C50.7782 50.5302 50.9612 50.7523 51.1857 50.926C51.7074 51.3499 52.3607 51.5754 53.0311 51.563C53.6498 51.6213 54.2666 51.4335 54.7495 51.0399C55.2324 50.6463 55.5429 50.0782 55.6148 49.457V45.315C55.6146 45.2703 55.6233 45.2259 55.6402 45.1846C55.6571 45.1432 55.682 45.1056 55.7134 45.0739C55.7448 45.0423 55.7821 45.0171 55.8231 45C55.8642 44.9828 55.9082 44.974 55.9526 44.974C55.9972 44.9739 56.0413 44.9826 56.0825 44.9997C56.1236 45.0168 56.161 45.0419 56.1925 45.0736C56.224 45.1053 56.249 45.1429 56.266 45.1844C56.283 45.2258 56.2916 45.2702 56.2915 45.315V49.457C56.2208 50.2587 55.8398 51.0003 55.2305 51.5217C54.6213 52.0431 53.8327 52.3025 53.035 52.244" fill="white"/>
</g>
<defs>
<filter id="filter0_d_3_72" x="0.899918" y="0" width="81.5611" height="83" filterUnits="userSpaceOnUse" color-interpolation-filters="sRGB">
<feFlood flood-opacity="0" result="BackgroundImageFix"/>
<feColorMatrix in="SourceAlpha" type="matrix" values="0 0 0 0 0 0 0 0 0 0 0 0 0 0 0 0 0 0 127 0" result="hardAlpha"/>
<feOffset dx="-4" dy="7"/>
<feGaussianBlur stdDeviation="3"/>
<feColorMatrix type="matrix" values="0 0 0 0 0.188235 0 0 0 0 0.427451 0 0 0 0 0.286275 0 0 0 0.4 0"/>
<feBlend mode="normal" in2="BackgroundImageFix" result="effect1_dropShadow_3_72"/>
<feBlend mode="normal" in="SourceGraphic" in2="effect1_dropShadow_3_72" result="shape"/>
</filter>
</defs>
</svg>
