<svg width="82" height="83" viewBox="0 0 82 83" fill="none" xmlns="http://www.w3.org/2000/svg">
<g filter="url(#filter0_d_3_49)">
<path d="M45.1526 0C52.0316 0 58.756 2.05271 64.4757 5.89856C70.1953 9.74441 74.6532 15.2107 77.2857 21.6061C79.9181 28.0015 80.6069 35.0388 79.2649 41.8282C77.9229 48.6175 74.6103 54.8539 69.7462 59.7487C64.882 64.6436 58.6848 67.977 51.938 69.3275C45.1912 70.678 38.198 69.9849 31.8427 67.3358C25.4874 64.6867 20.0554 60.2007 16.2337 54.445C12.412 48.6892 10.3721 41.9223 10.3721 35C10.3721 25.7174 14.0365 16.815 20.5591 10.2513C27.0817 3.68749 35.9283 0 45.1526 0V0Z" fill="#007BFF"/>
</g>
<path opacity="0.5" d="M46.8618 38.0432V44.4772L50.9649 42.0082V35.5352L46.8618 38.0432Z" fill="#F9F9F9"/>
<path fill-rule="evenodd" clip-rule="evenodd" d="M54.7461 29.6841C54.52 29.1754 54.4052 28.6237 54.4095 28.0665C54.4139 27.5092 54.5372 26.9595 54.7712 26.4544C55.0052 25.9493 55.3444 25.5008 55.7657 25.1392C56.1871 24.7776 56.6808 24.5115 57.2133 24.3587C57.7459 24.206 58.3049 24.1703 58.8523 24.254C59.3998 24.3377 59.923 24.5389 60.3864 24.844C60.8498 25.149 61.2427 25.5507 61.5383 26.022C61.8339 26.4932 62.0253 27.0228 62.0997 27.5751C62.2537 28.2827 62.1878 29.0209 61.9108 29.6895C61.6339 30.3582 61.1593 30.925 60.5515 31.3131C59.9411 31.75 59.216 31.9958 58.4673 32.0196C57.7187 32.0435 56.9796 31.8443 56.343 31.4471C56.2774 31.3974 56.1978 31.3699 56.1157 31.3685C56.0336 31.367 55.9532 31.3917 55.8859 31.4391C54.9213 32.0164 53.9511 32.5831 52.9753 33.1391C52.8792 33.1871 52.8002 33.2637 52.749 33.3586C52.6978 33.4534 52.6769 33.5618 52.6891 33.6691C52.6964 35.5531 52.6964 37.4371 52.6891 39.3211C52.6794 39.4339 52.7045 39.547 52.7611 39.6449C52.8176 39.7428 52.9029 39.8207 53.0051 39.8681C54.8653 40.9474 56.7203 42.0357 58.57 43.1331C58.6187 43.1739 58.675 43.2045 58.7357 43.2231C58.7964 43.2416 58.8601 43.2478 58.9232 43.2412C58.9863 43.2346 59.0474 43.2153 59.103 43.1845C59.1585 43.1538 59.2074 43.1121 59.2467 43.0621C60.0227 42.3557 61.0174 41.941 62.0625 41.8882C63.1075 41.8354 64.1386 42.1478 64.9809 42.7724C65.8233 43.3971 66.4252 44.2955 66.6846 45.3156C66.944 46.3357 66.8451 47.4147 66.4045 48.3697C65.9638 49.3248 65.2087 50.0972 64.267 50.5561C63.3252 51.015 62.2548 51.1322 61.237 50.8878C60.2192 50.6434 59.3167 50.0525 58.6823 49.2151C58.0479 48.3777 57.7207 47.3454 57.7561 46.2931C57.767 45.9931 57.8396 45.6931 57.8495 45.3931C57.8521 45.3297 57.8408 45.2665 57.8166 45.208C57.7924 45.1494 57.7558 45.0969 57.7094 45.0541C55.7438 43.8907 53.7722 42.7381 51.7947 41.5961C51.7329 41.5685 51.6659 41.5547 51.5983 41.5558C51.5307 41.5568 51.4641 41.5726 51.4032 41.6021C49.7291 42.5694 48.0606 43.5467 46.3978 44.5341C46.3337 44.5803 46.2803 44.6401 46.2414 44.7091C46.2024 44.7782 46.1788 44.8549 46.1722 44.9341C46.1543 46.2951 46.1722 47.6571 46.1533 49.0171C46.1533 49.2811 46.3064 49.3351 46.4912 49.4091C47.2093 49.7085 47.8247 50.2127 48.2617 50.8596C48.6987 51.5066 48.9382 52.2679 48.9507 53.0501C48.9431 53.9628 48.6165 54.8436 48.028 55.5382C47.4396 56.2328 46.6269 56.6967 45.7325 56.8485C44.8382 57.0004 43.9192 56.8306 43.1369 56.3688C42.3545 55.907 41.7587 55.1827 41.454 54.3231C41.1153 53.3815 41.1541 52.3442 41.5622 51.4309C41.9702 50.5176 42.7155 49.8 43.6402 49.4301C43.8029 49.39 43.9445 49.2895 44.0367 49.1487C44.1288 49.0079 44.1647 48.8373 44.137 48.6711C44.1152 47.4682 44.1152 46.265 44.137 45.0621C44.1467 44.9615 44.125 44.8604 44.0749 44.7727C44.0249 44.6851 43.949 44.6153 43.8578 44.5731C42.2367 43.6344 40.6206 42.6871 39.0094 41.7311C38.9225 41.6682 38.8183 41.6344 38.7113 41.6344C38.6043 41.6344 38.5 41.6682 38.4132 41.7311C36.5145 42.8411 34.6118 43.9441 32.7052 45.0401C32.6057 45.0758 32.5239 45.1488 32.4766 45.2438C32.4294 45.3389 32.4205 45.4486 32.4518 45.5501C32.5673 46.1599 32.5597 46.7869 32.4296 47.3937C32.2994 48.0005 32.0493 48.5749 31.6942 49.0825C31.339 49.5901 30.886 50.0206 30.3622 50.3485C29.8383 50.6764 29.2543 50.8949 28.6448 50.9911C27.472 51.1406 26.2866 50.8353 25.3294 50.1371C24.3722 49.4389 23.715 48.4002 23.4913 47.2321C23.3678 46.5571 23.3972 45.8628 23.5772 45.2008C23.7573 44.5388 24.0834 43.9263 24.5314 43.4087C24.9793 42.8912 25.5375 42.482 26.1643 42.2116C26.7912 41.9412 27.4706 41.8166 28.1519 41.8471C29.2896 41.8752 30.3706 42.353 31.1609 43.1771C31.1894 43.221 31.2268 43.2584 31.2707 43.2869C31.3145 43.3153 31.3638 43.3342 31.4154 43.3422C31.4669 43.3502 31.5196 43.3472 31.5699 43.3334C31.6202 43.3196 31.6671 43.2953 31.7075 43.2621C33.524 42.1801 35.3459 41.1077 37.173 40.0451C37.27 39.9997 37.3507 39.9253 37.4041 39.8321C37.4574 39.7388 37.4808 39.6312 37.4711 39.5241C37.4625 37.5187 37.4625 35.5134 37.4711 33.5081C37.4825 33.3955 37.4591 33.2821 37.4041 33.1833C37.3492 33.0845 37.2654 33.0052 37.164 32.9561C36.1041 32.3467 35.054 31.7251 34.0139 31.0911C33.9239 31.0154 33.8079 30.9785 33.6911 30.9885C33.5742 30.9984 33.466 31.0543 33.3899 31.1441C32.7637 31.6467 31.9991 31.9433 31.1998 31.9937C30.4004 32.0441 29.605 31.8458 28.9215 31.4257C28.2379 31.0057 27.6993 30.3842 27.3787 29.6457C27.0581 28.9071 26.9711 28.0871 27.1294 27.2971C27.322 26.5014 27.7516 25.7839 28.3605 25.2406C28.9695 24.6973 29.7288 24.3542 30.5369 24.2571C31.1238 24.2067 31.7145 24.2912 32.2642 24.5042C32.814 24.7171 33.3085 25.053 33.7105 25.4863C34.1124 25.9197 34.4113 26.4393 34.5845 27.0059C34.7578 27.5725 34.8009 28.1713 34.7105 28.7571C34.6756 28.8706 34.6842 28.9932 34.7346 29.1007C34.785 29.2083 34.8735 29.2929 34.9828 29.3381C36.0431 29.9381 37.0915 30.5681 38.1379 31.1961C38.2129 31.2534 38.304 31.2852 38.3981 31.287C38.4923 31.2888 38.5845 31.2605 38.6616 31.2061C40.3874 30.1834 42.1178 29.1691 43.8528 28.1631C43.944 28.1199 44.0197 28.0495 44.0697 27.9615C44.1197 27.8734 44.1415 27.772 44.1321 27.6711C44.1251 25.8841 44.1221 24.0981 44.1321 22.3121C44.1321 22.0461 44.0218 21.9681 43.7982 21.8951C43.0419 21.6748 42.3552 21.2613 41.8048 20.6947C41.2545 20.1281 40.8593 19.4278 40.6577 18.6619C40.4561 17.896 40.455 17.0906 40.6545 16.3242C40.854 15.5578 41.2473 14.8564 41.7961 14.2883C42.3449 13.7201 43.0305 13.3047 43.7862 13.0824C44.5418 12.86 45.3419 12.8383 46.1083 13.0195C46.8748 13.2006 47.5816 13.5783 48.16 14.1159C48.7384 14.6534 49.1686 15.3325 49.4088 16.0871C49.7753 17.2399 49.6741 18.4918 49.1272 19.5699C48.5803 20.6479 47.6321 21.4647 46.4892 21.8421C46.4368 21.8489 46.3863 21.8662 46.3406 21.893C46.2949 21.9197 46.255 21.9554 46.2231 21.9978C46.1913 22.0403 46.1682 22.0887 46.1552 22.1403C46.1422 22.1918 46.1395 22.2455 46.1474 22.2981C46.1599 24.1087 46.1599 25.9197 46.1474 27.7311C46.137 27.8378 46.1594 27.9453 46.2117 28.0388C46.2639 28.1323 46.3435 28.2075 46.4395 28.2541C48.1441 29.2407 49.8444 30.2354 51.5403 31.2381C51.6271 31.302 51.7321 31.3358 51.8396 31.3346C51.9471 31.3333 52.0513 31.297 52.1366 31.2311C53.0001 30.7001 53.8666 30.2001 54.7461 29.6841ZM40.4821 32.5841C40.6232 32.6741 40.7186 32.7411 40.819 32.7991C42.1456 33.5701 43.4762 34.3351 44.7939 35.1161C44.8805 35.1772 44.9837 35.21 45.0895 35.21C45.1953 35.21 45.2986 35.1772 45.3852 35.1161C46.7605 34.3331 48.1418 33.5611 49.5201 32.7841C49.6095 32.7331 49.69 32.6691 49.7983 32.5951C49.7198 32.5401 49.6741 32.5021 49.6234 32.4741C48.1825 31.6601 46.7416 30.8421 45.2937 30.0431C45.2217 30.0137 45.1443 30.0001 45.0666 30.0034C44.989 30.0067 44.9129 30.0267 44.8436 30.0621C43.7177 30.6961 42.6017 31.3511 41.4828 32.0001C41.1658 32.1781 40.8458 32.3671 40.4831 32.5801L40.4821 32.5841ZM46.1871 42.2431C46.3014 42.1911 46.357 42.1701 46.4077 42.1431C47.7989 41.3431 49.1902 40.5431 50.5685 39.7221C50.6351 39.6717 50.6902 39.6075 50.73 39.5338C50.7697 39.4602 50.7933 39.3787 50.799 39.2951C50.8149 37.7661 50.8099 36.2371 50.8079 34.7081C50.8009 34.6132 50.7873 34.519 50.7672 34.4261C50.7104 34.4476 50.6547 34.4719 50.6003 34.4991C49.1892 35.3131 47.7761 36.1231 46.3759 36.9551C46.3134 37.0107 46.2634 37.079 46.2292 37.1556C46.1949 37.2321 46.1772 37.3151 46.1772 37.3991C46.1623 38.8911 46.1672 40.3841 46.1692 41.8771C46.1702 41.9761 46.1782 42.0811 46.1871 42.2391V42.2431ZM39.5142 34.5181C39.5053 34.7181 39.4963 34.8251 39.4963 34.9321C39.4963 36.3651 39.5033 37.7971 39.4904 39.2321C39.4794 39.344 39.5035 39.4567 39.5593 39.5542C39.615 39.6517 39.6997 39.7293 39.8014 39.7761C41.133 40.5351 42.4566 41.3091 43.7843 42.0761C43.8836 42.1331 43.983 42.1761 44.1112 42.2351C44.1237 42.1709 44.1326 42.1062 44.138 42.0411C44.138 40.5111 44.147 38.9821 44.1281 37.4521C44.1147 37.3691 44.0838 37.2899 44.0376 37.2199C43.9913 37.1498 43.9307 37.0906 43.8598 37.0461C43.0032 36.5281 42.1307 36.0341 41.2632 35.5331L39.5142 34.5181ZM45.094 14.9661C44.7614 14.963 44.4315 15.0266 44.1236 15.1531C43.8157 15.2795 43.5358 15.4664 43.3003 15.7028C43.0649 15.9392 42.8785 16.2204 42.7521 16.53C42.6257 16.8396 42.5617 17.1714 42.564 17.5061C42.5648 18.007 42.713 18.4966 42.9899 18.9128C43.2669 19.3291 43.6602 19.6536 44.1201 19.8452C44.5801 20.0368 45.0862 20.087 45.5745 19.9896C46.0628 19.8921 46.5115 19.6512 46.8639 19.2974C47.2164 18.9436 47.4568 18.4926 47.5548 18.0014C47.6528 17.5103 47.6041 17.0009 47.4148 16.5376C47.2255 16.0742 46.904 15.6777 46.491 15.398C46.0779 15.1183 45.5918 14.968 45.094 14.9661ZM25.4877 46.4491C25.4876 46.9503 25.6355 47.4402 25.9126 47.8567C26.1898 48.2731 26.5837 48.5973 27.0444 48.7879C27.505 48.9785 28.0116 49.0271 28.4997 48.9274C28.9878 48.8276 29.4354 48.5842 29.7857 48.2278C30.136 47.8715 30.3732 47.4185 30.467 46.9262C30.5609 46.434 30.5072 45.9248 30.3128 45.4633C30.1184 45.0018 29.7921 44.6089 29.3753 44.3345C28.9585 44.0601 28.4701 43.9165 27.972 43.9221C27.6433 43.9199 27.3174 43.9838 27.0135 44.1101C26.7096 44.2365 26.4339 44.4226 26.2024 44.6576C25.971 44.8926 25.7886 45.1718 25.6658 45.4788C25.5431 45.7857 25.4826 46.1142 25.4877 46.4451V46.4491ZM62.3233 43.9221C61.9941 43.9169 61.6672 43.9774 61.3614 44.1C61.0556 44.2227 60.7769 44.4051 60.5415 44.6367C60.3061 44.8683 60.1186 45.1445 59.9898 45.4494C59.8611 45.7542 59.7936 46.0818 59.7913 46.4131C59.783 46.749 59.8413 47.0832 59.9629 47.3962C60.0845 47.7091 60.2669 47.9946 60.4994 48.2358C60.7319 48.477 61.0098 48.6691 61.317 48.801C61.6241 48.9328 61.9543 49.0017 62.2882 49.0037C62.6221 49.0056 62.9531 48.9405 63.2617 48.8122C63.5704 48.6839 63.8505 48.495 64.0857 48.2565C64.3209 48.018 64.5065 47.7347 64.6317 47.4231C64.7568 47.1116 64.819 46.7781 64.8146 46.4421C64.8201 46.1106 64.7597 45.7813 64.6367 45.4737C64.5138 45.1661 64.3309 44.8865 64.0987 44.6512C63.8666 44.4159 63.59 44.2298 63.2852 44.1039C62.9805 43.978 62.6537 43.9148 62.3243 43.9181L62.3233 43.9221ZM60.0993 28.0301C60.1078 27.8025 60.0703 27.5757 59.9889 27.3632C59.9076 27.1508 59.7841 26.9572 59.6261 26.7943C59.4681 26.6313 59.2788 26.5024 59.0697 26.4154C58.8607 26.3284 58.6362 26.285 58.41 26.2881C57.9176 26.263 57.4353 26.4351 57.0687 26.7668C56.702 27.0984 56.4808 27.5627 56.4533 28.0581C56.4532 28.5346 56.6309 28.9937 56.9514 29.3445C57.2718 29.6953 57.7115 29.9122 58.1834 29.9521C58.4368 29.9594 58.6891 29.9146 58.9248 29.8204C59.1604 29.7262 59.3745 29.5847 59.5539 29.4044C59.7334 29.2241 59.8744 29.0089 59.9683 28.7719C60.0623 28.5349 60.1072 28.2811 60.1003 28.0261L60.0993 28.0301ZM46.8986 52.8761C46.8998 52.514 46.7942 52.1597 46.5952 51.858C46.3963 51.5564 46.1128 51.3209 45.7808 51.1814C45.4488 51.0419 45.0831 51.0046 44.7301 51.0743C44.377 51.144 44.0524 51.3175 43.7974 51.5729C43.5423 51.8283 43.3683 52.154 43.2973 52.509C43.2263 52.8639 43.2616 53.2321 43.3986 53.5669C43.5356 53.9017 43.7682 54.1881 44.067 54.3898C44.3658 54.5915 44.7173 54.6995 45.0771 54.7001C45.5567 54.6911 46.0142 54.4959 46.3539 54.1551C46.6936 53.8144 46.8892 53.3546 46.8996 52.8721L46.8986 52.8761ZM30.9075 29.9471C31.2668 29.9459 31.6177 29.8376 31.9159 29.6359C32.2141 29.4343 32.4463 29.1482 32.5831 28.8139C32.7199 28.4796 32.7552 28.112 32.6846 27.7575C32.614 27.403 32.4407 27.0775 32.1864 26.822C31.9321 26.5666 31.6084 26.3926 31.256 26.3222C30.9036 26.2517 30.5383 26.2879 30.2063 26.4261C29.8743 26.5643 29.5905 26.7984 29.3906 27.0988C29.1906 27.3992 29.0836 27.7525 29.083 28.1141C29.0942 28.597 29.2904 29.0569 29.6306 29.3977C29.9707 29.7385 30.4286 29.9339 30.9085 29.9431L30.9075 29.9471Z" fill="#F9F9F9"/>
<defs>
<filter id="filter0_d_3_49" x="0.372131" y="0" width="81.561" height="83" filterUnits="userSpaceOnUse" color-interpolation-filters="sRGB">
<feFlood flood-opacity="0" result="BackgroundImageFix"/>
<feColorMatrix in="SourceAlpha" type="matrix" values="0 0 0 0 0 0 0 0 0 0 0 0 0 0 0 0 0 0 127 0" result="hardAlpha"/>
<feOffset dx="-4" dy="7"/>
<feGaussianBlur stdDeviation="3"/>
<feColorMatrix type="matrix" values="0 0 0 0 0.180392 0 0 0 0 0.427451 0 0 0 0 0.282353 0 0 0 0.4 0"/>
<feBlend mode="normal" in2="BackgroundImageFix" result="effect1_dropShadow_3_49"/>
<feBlend mode="normal" in="SourceGraphic" in2="effect1_dropShadow_3_49" result="shape"/>
</filter>
</defs>
</svg>
