<svg width="82" height="83" viewBox="0 0 82 83" fill="none" xmlns="http://www.w3.org/2000/svg">
<g filter="url(#filter0_d_3_56)">
<path d="M45.1985 0C52.0774 0 58.8019 2.05271 64.5215 5.89856C70.2411 9.74441 74.699 15.2107 77.3315 21.6061C79.964 28.0015 80.6527 35.0388 79.3107 41.8282C77.9687 48.6175 74.6562 54.8539 69.792 59.7487C64.9279 64.6436 58.7306 67.977 51.9838 69.3275C45.2371 70.678 38.2439 69.9849 31.8886 67.3358C25.5332 64.6867 20.1013 60.2007 16.2795 54.445C12.4578 48.6892 10.418 41.9223 10.418 35C10.418 25.7174 14.0823 16.815 20.6049 10.2513C27.1276 3.68749 35.9741 0 45.1985 0V0Z" fill="#007BFF"/>
</g>
<path d="M53.9721 53.9891C52.8194 55.8101 51.6239 56.7321 50.4275 56.7321H50.3837C48.7838 56.7101 47.3509 54.9861 46.8182 54.1511V17.8831C47.6251 15.4981 48.758 14.0831 50.1969 13.6661C52.1039 13.1021 54.0725 14.4791 54.4948 14.7991C55.8099 17.0555 57.5324 19.0446 59.5737 20.6641C61.4683 21.9086 62.8026 23.8509 63.2903 26.0741C63.0747 25.9221 62.8699 25.7651 62.6334 25.6301L62.3005 25.5371C62.1811 25.5385 62.0641 25.5712 61.9611 25.632C61.858 25.6929 61.7726 25.7798 61.7132 25.8841C61.6701 25.9615 61.6426 26.0467 61.6325 26.1349C61.6224 26.2231 61.6298 26.3124 61.6543 26.3976C61.6788 26.4829 61.7199 26.5623 61.7752 26.6315C61.8306 26.7006 61.899 26.7579 61.9766 26.8001C62.5387 27.0918 63.0364 27.4948 63.4399 27.9849C63.8434 28.475 64.1444 29.0421 64.3248 29.6521C64.64 31.0699 64.5258 32.5503 63.9968 33.9021L63.6987 33.8261L63.5526 33.8481C63.4671 33.8671 63.3861 33.9028 63.3143 33.9533C63.2426 34.0037 63.1814 34.068 63.1343 34.1423C63.0872 34.2166 63.0552 34.2995 63.04 34.3863C63.0248 34.4731 63.0268 34.5621 63.0458 34.6481C64.3118 40.1601 62.859 42.3831 61.9855 43.1801C61.8017 42.3199 61.5457 41.4768 61.2204 40.6601C61.1701 40.5355 61.0837 40.429 60.9724 40.3546C60.861 40.2802 60.7299 40.2413 60.5963 40.2431L60.3479 40.2861C60.2658 40.3178 60.1909 40.3658 60.1276 40.4271C60.0642 40.4884 60.0138 40.5619 59.9791 40.6432C59.9445 40.7245 59.9264 40.8119 59.9259 40.9003C59.9254 40.9888 59.9425 41.0764 59.9762 41.1581C61.9299 46.1451 60.4284 48.4491 59.4426 49.3491C59.3848 49.0153 59.3055 48.6856 59.2051 48.3621C59.1625 48.2258 59.0779 48.1067 58.9635 48.0221C58.8492 47.9374 58.711 47.8915 58.5691 47.8911L58.3703 47.9241C58.2858 47.9506 58.2073 47.9937 58.1394 48.051C58.0715 48.1082 58.0156 48.1785 57.9749 48.2576C57.9343 48.3368 57.9096 48.4233 57.9024 48.5121C57.8953 48.601 57.9057 48.6904 57.9331 48.7751C58.1588 49.3504 58.2578 49.968 58.2235 50.5855C58.1892 51.2031 58.0223 51.8057 57.7344 52.3521C57.1147 53.302 56.2305 54.0471 55.1924 54.4941C55.2185 54.3585 55.2041 54.2181 55.151 54.0907C55.098 53.9633 55.0086 53.8545 54.8943 53.7781C54.744 53.6836 54.5627 53.6527 54.3899 53.6922C54.2172 53.7318 54.0669 53.8385 53.9721 53.9891Z" fill="white" fill-opacity="0.3"/>
<path d="M47.177 54.0442C47.7732 54.9442 49.0551 56.3532 50.3877 56.3722L50.4265 56.7332V56.3722C51.4947 56.3722 52.5858 55.5052 53.668 53.7952C53.8178 53.5688 54.0484 53.4091 54.312 53.3491C54.5756 53.2892 54.8521 53.3336 55.0841 53.4732C55.2561 53.5882 55.3911 53.7512 55.4726 53.9422C56.2688 53.5391 56.9418 52.9268 57.4203 52.1702C57.6813 51.6671 57.8313 51.1133 57.8603 50.5466C57.8893 49.9799 57.7965 49.4135 57.5883 48.8862C57.545 48.7584 57.5279 48.6232 57.538 48.4886C57.5481 48.3541 57.5851 48.2229 57.6469 48.1032C57.7084 47.9795 57.7941 47.8695 57.8987 47.7799C58.0034 47.6902 58.1249 47.6226 58.256 47.5812L58.5065 47.5352C58.5256 47.5337 58.5449 47.5337 58.5641 47.5352C58.7824 47.5365 58.9948 47.6073 59.1706 47.7376C59.3465 47.8678 59.4768 48.0508 59.5429 48.2602C59.5807 48.3742 59.6135 48.4882 59.6423 48.6002C60.486 47.5002 61.2144 45.3202 59.6423 41.3002C59.5914 41.1712 59.5667 41.0333 59.5694 40.8946C59.5721 40.7558 59.6023 40.619 59.6582 40.4922C59.712 40.3694 59.7897 40.2587 59.8869 40.1668C59.984 40.0749 60.0985 40.0036 60.2236 39.9572C60.244 39.9498 60.2649 39.9441 60.2862 39.9402L60.5347 39.8972C60.555 39.8939 60.5756 39.8922 60.5963 39.8922C60.8011 39.8909 61.0016 39.9513 61.172 40.0657C61.3424 40.1802 61.4748 40.3433 61.5522 40.5342C61.7979 41.1542 62.006 41.7887 62.1753 42.4342C62.8958 41.4342 63.7265 39.2282 62.696 34.7412C62.6647 34.6106 62.6598 34.4751 62.6817 34.3426C62.7035 34.2102 62.7517 34.0835 62.8232 33.9702C62.8956 33.8528 62.9905 33.7512 63.1025 33.6714C63.2144 33.5915 63.3411 33.535 63.4751 33.5052L63.647 33.4792C63.6864 33.4719 63.7268 33.4719 63.7663 33.4792C64.1893 32.2846 64.2645 30.9933 63.9829 29.7572C63.8141 29.1931 63.5341 28.669 63.1595 28.2162C62.7849 27.7635 62.3234 27.3914 61.8027 27.1222C61.6867 27.0594 61.5842 26.974 61.5013 26.871C61.4184 26.768 61.3567 26.6494 61.3197 26.5222C61.2793 26.3893 61.2658 26.2495 61.2799 26.1113C61.2941 25.973 61.3357 25.839 61.4022 25.7172C61.492 25.5555 61.6229 25.4207 61.7814 25.3265C61.9399 25.2324 62.1204 25.1822 62.3045 25.1812C62.338 25.181 62.3715 25.1853 62.4039 25.1942L62.7328 25.2862C62.0878 23.5251 60.9108 22.0115 59.367 20.9582C57.3067 19.3269 55.5658 17.3242 54.2334 15.0522C53.3397 14.3747 52.2693 13.9738 51.1529 13.8982C50.8651 13.8967 50.5786 13.9371 50.3022 14.0182C48.9955 14.3962 47.9461 15.7182 47.1819 17.9492L47.177 54.0442ZM50.4265 57.0932H50.3827C48.3078 57.0642 46.693 54.6242 46.5161 54.3462C46.479 54.288 46.4594 54.2203 46.4595 54.1512V17.8832C46.4592 17.8434 46.4656 17.8038 46.4784 17.7662C47.325 15.2662 48.5413 13.7662 50.0965 13.3192C50.4378 13.2196 50.7916 13.1698 51.1469 13.1712C52.4414 13.2468 53.683 13.7139 54.7094 14.5112C54.745 14.5388 54.7753 14.5727 54.7989 14.6112C56.0899 16.829 57.7819 18.7843 59.7874 20.3762C61.7574 21.674 63.1417 23.6988 63.642 26.0142C63.654 26.0845 63.645 26.1567 63.6161 26.2219C63.5873 26.287 63.54 26.3421 63.4801 26.3802C63.4204 26.4185 63.3508 26.4382 63.28 26.4366C63.2092 26.435 63.1405 26.4122 63.0826 26.3712L62.9345 26.2712C62.7914 26.1712 62.6483 26.0652 62.4913 25.9712L62.2588 25.9072C62.2098 25.9145 62.1631 25.9329 62.1221 25.9609C62.0812 25.989 62.047 26.026 62.0223 26.0692C62.0026 26.1063 61.9904 26.147 61.9865 26.1889C61.9825 26.2308 61.9869 26.273 61.9994 26.3132C62.0102 26.3502 62.0282 26.3847 62.0524 26.4146C62.0767 26.4445 62.1066 26.4692 62.1405 26.4872C62.7458 26.8016 63.2816 27.2359 63.7159 27.764C64.1502 28.2921 64.4739 28.903 64.6676 29.5602C65.0038 31.0497 64.8868 32.6065 64.3317 34.0282C64.3018 34.1125 64.2418 34.1826 64.1634 34.2249C64.085 34.2673 63.9937 34.2788 63.9074 34.2572L63.6748 34.1982L63.5993 34.2092C63.5268 34.2323 63.4653 34.2814 63.4264 34.3472C63.4055 34.3799 63.3913 34.4165 63.3849 34.4548C63.3784 34.4931 63.3797 34.5324 63.3887 34.5702C64.6805 40.1932 63.2118 42.5502 62.221 43.4542C62.1744 43.4972 62.1172 43.5269 62.0554 43.5402C61.9936 43.5536 61.9293 43.5501 61.8692 43.5302C61.8091 43.5108 61.7551 43.4756 61.7129 43.4284C61.6706 43.3811 61.6416 43.3234 61.6288 43.2612C61.4493 42.4206 61.1989 41.597 60.8805 40.7992C60.859 40.7454 60.8225 40.699 60.7755 40.6657C60.7284 40.6323 60.6727 40.6134 60.6152 40.6112L60.4403 40.6422C60.3806 40.6712 60.3333 40.7209 60.3071 40.7822C60.2909 40.8215 60.2826 40.8636 60.2826 40.9062C60.2826 40.9487 60.2909 40.9909 60.3071 41.0302C62.3224 46.1712 60.7801 48.6202 59.682 49.6232C59.6352 49.6661 59.5778 49.6956 59.5158 49.7088C59.4538 49.722 59.3894 49.7183 59.3293 49.6982C59.269 49.6784 59.2149 49.6429 59.1727 49.5953C59.1304 49.5477 59.1015 49.4897 59.0888 49.4272L59.0639 49.3012C59.0154 49.0248 58.949 48.7519 58.8652 48.4842C58.8475 48.4232 58.8119 48.3691 58.7632 48.3288C58.7144 48.2885 58.6548 48.2639 58.5919 48.2582L58.428 48.2852C58.3691 48.3207 58.3215 48.3724 58.2908 48.4342C58.2728 48.4696 58.2619 48.5082 58.2588 48.5479C58.2558 48.5875 58.2605 48.6274 58.2729 48.6652C58.5149 49.2891 58.6198 49.9583 58.5803 50.6269C58.5409 51.2954 58.358 51.9475 58.0444 52.5382C57.3934 53.5566 56.4525 54.3539 55.3444 54.8262C55.2848 54.8544 55.2187 54.8657 55.1532 54.8589C55.0877 54.852 55.0253 54.8272 54.9728 54.7872C54.9202 54.7468 54.8797 54.6925 54.8558 54.6304C54.832 54.5682 54.8257 54.5007 54.8376 54.4352C54.8512 54.3693 54.8451 54.3009 54.82 54.2386C54.7949 54.1762 54.7519 54.1228 54.6965 54.0852C54.6263 54.0492 54.5457 54.0395 54.4691 54.0578C54.3924 54.0761 54.3247 54.1213 54.2781 54.1852C53.0529 56.1202 51.759 57.0992 50.4294 57.0992" fill="#116149"/>
<path d="M43.9911 17.8832V54.1512C43.4515 54.9862 42.0245 56.7102 40.4186 56.7322H40.3828C39.1804 56.7322 37.9899 55.8102 36.8332 53.9892C36.7384 53.8386 36.5882 53.7318 36.4154 53.6923C36.2426 53.6528 36.0613 53.6836 35.9111 53.7782C35.7969 53.8545 35.7081 53.9635 35.6562 54.0912C35.6043 54.2188 35.5916 54.3592 35.6199 54.4942C34.58 54.0479 33.694 53.3028 33.073 52.3522C32.785 51.8058 32.6181 51.2031 32.5838 50.5856C32.5495 49.9681 32.6486 49.3504 32.8742 48.7752C32.9285 48.6049 32.9138 48.4199 32.8332 48.2605C32.7526 48.1011 32.6127 47.9802 32.4439 47.9242L32.2333 47.8912C32.0926 47.8941 31.9564 47.941 31.8435 48.0254C31.7306 48.1098 31.6466 48.2275 31.6032 48.3622C31.5057 48.6864 31.4267 49.0159 31.3667 49.3492C30.3859 48.4492 28.8774 46.1492 30.8391 41.1582C30.8719 41.076 30.8882 40.9882 30.887 40.8996C30.8857 40.8111 30.867 40.7237 30.8319 40.6425C30.7967 40.5614 30.7459 40.4881 30.6823 40.4269C30.6187 40.3657 30.5436 40.3179 30.4614 40.2862L30.214 40.2432C30.0808 40.2404 29.9499 40.279 29.8392 40.3535C29.7284 40.4281 29.6432 40.5352 29.5949 40.6602C29.2695 41.4774 29.0116 42.3203 28.8238 43.1802C27.9562 42.3802 26.4975 40.1602 27.7625 34.6482C27.7822 34.5622 27.7847 34.4731 27.7699 34.3861C27.7551 34.2991 27.7232 34.216 27.6761 34.1415C27.6291 34.0671 27.5677 34.0028 27.4957 33.9524C27.4237 33.9021 27.3424 33.8666 27.2567 33.8482L27.1106 33.8262L26.8035 33.9022C26.2788 32.5492 26.1663 31.0697 26.4806 29.6522C26.6614 29.0414 26.9633 28.4738 27.3681 27.9836C27.7729 27.4935 28.2721 27.0909 28.8357 26.8002C28.913 26.7576 28.981 26.7 29.0359 26.6307C29.0908 26.5614 29.1314 26.4818 29.1554 26.3965C29.1793 26.3112 29.1862 26.222 29.1755 26.134C29.1648 26.0461 29.1368 25.9611 29.0931 25.8842C29.0335 25.7801 28.948 25.6933 28.845 25.6325C28.7421 25.5717 28.6252 25.5388 28.5058 25.5372L28.1769 25.6302C27.9483 25.7663 27.7271 25.9145 27.514 26.0742C28.008 23.8521 29.3434 21.9113 31.2365 20.6642C33.2739 19.0416 34.9946 17.053 36.3115 14.7992C36.7319 14.4792 38.7024 13.0992 40.6084 13.6662C42.0414 14.0832 43.1782 15.4982 43.9871 17.8832" fill="white" fill-opacity="0.3"/>
<path d="M36.2698 53.3141C36.4441 53.313 36.6158 53.3567 36.7686 53.4413C36.9213 53.5258 37.05 53.6483 37.1423 53.7971C38.2265 55.5031 39.3186 56.3701 40.3878 56.3701L40.4236 56.7311V56.3701C41.7453 56.3521 43.0391 54.9381 43.6413 54.0411V17.9411C42.8702 15.7111 41.8198 14.3881 40.517 14.0101C40.2403 13.9293 39.9535 13.8888 39.6654 13.8901C38.5489 13.966 37.4785 14.3674 36.5848 15.0451C35.2499 17.3121 33.5113 19.3121 31.4562 20.9451C29.9141 22.001 28.7368 23.5136 28.0875 25.2731L28.4144 25.1811C28.4468 25.1724 28.4802 25.168 28.5138 25.1681C28.6958 25.1698 28.8743 25.2195 29.0312 25.3123C29.1882 25.4052 29.3181 25.5379 29.4081 25.6971C29.4757 25.8209 29.5182 25.9569 29.5332 26.0973C29.5482 26.2377 29.5354 26.3797 29.4956 26.5151C29.4577 26.643 29.3947 26.762 29.3104 26.8651C29.2261 26.9681 29.1221 27.0532 29.0047 27.1151C28.485 27.3837 28.0244 27.7549 27.6505 28.2066C27.2766 28.6583 26.997 29.1812 26.8284 29.7441C26.549 30.9806 26.6234 32.2715 27.043 33.4671C27.0838 33.4599 27.1255 33.4599 27.1663 33.4671L27.3123 33.4891C27.451 33.5162 27.5827 33.5716 27.6993 33.652C27.8159 33.7323 27.9148 33.8358 27.9901 33.9561C28.0614 34.0707 28.1092 34.1985 28.1306 34.3319C28.1519 34.4654 28.1464 34.6018 28.1143 34.7331C27.0868 39.2111 27.9205 41.4211 28.64 42.4221C28.8106 41.7769 29.0194 41.1424 29.265 40.5221C29.3399 40.3301 29.471 40.1655 29.6411 40.0503C29.8111 39.9351 30.012 39.8747 30.217 39.8771C30.2377 39.8772 30.2583 39.8789 30.2786 39.8821L30.5261 39.9251C30.5474 39.9291 30.5683 39.9348 30.5887 39.9421C30.7145 39.9885 30.8297 40.0599 30.9274 40.1522C31.0251 40.2445 31.1032 40.3557 31.1571 40.4791C31.2131 40.6057 31.2435 40.7423 31.2466 40.8808C31.2497 41.0194 31.2253 41.1571 31.175 41.2861C29.5949 45.3031 30.3224 47.4861 31.166 48.5861C31.1948 48.4721 31.2276 48.3571 31.2654 48.2391C31.333 48.0331 31.4627 47.8534 31.6366 47.7251C31.8104 47.5967 32.0197 47.5261 32.2353 47.5231L32.5006 47.5601C32.5195 47.5635 32.5381 47.5682 32.5563 47.5741C32.6845 47.6159 32.8032 47.6828 32.9056 47.771C33.0079 47.8592 33.0918 47.967 33.1525 48.0881C33.2147 48.2093 33.2523 48.3418 33.2632 48.4777C33.2742 48.6137 33.2581 48.7505 33.2161 48.8801C33.0078 49.4079 32.9151 49.9747 32.9445 50.5418C32.9738 51.1089 33.1244 51.663 33.386 52.1661C33.8645 52.9218 34.5376 53.5329 35.3337 53.9341C35.4132 53.7458 35.5459 53.5852 35.7153 53.4721C35.8802 53.3657 36.0719 53.3091 36.2678 53.3091L36.2698 53.3141ZM40.4236 57.0921H40.3878C39.0592 57.0921 37.7624 56.1131 36.5361 54.1821C36.4908 54.1137 36.4213 54.0653 36.3417 54.0467C36.2621 54.0282 36.1785 54.0408 36.1078 54.0821C36.0548 54.1192 36.014 54.1714 35.9906 54.2319C35.9672 54.2925 35.9624 54.3588 35.9767 54.4221C35.9896 54.4878 35.9841 54.5558 35.9608 54.6186C35.9374 54.6813 35.8972 54.7362 35.8445 54.7771C35.792 54.8183 35.7292 54.8441 35.6631 54.8515C35.597 54.8589 35.5301 54.8477 35.4699 54.8191C34.3614 54.3481 33.4198 53.5518 32.7679 52.5341C32.454 51.9441 32.2707 51.2927 32.2307 50.6247C32.1908 49.9566 32.295 49.2878 32.5364 48.6641C32.5492 48.6246 32.554 48.583 32.5506 48.5416C32.5472 48.5002 32.5356 48.4599 32.5165 48.4231C32.4833 48.3566 32.4277 48.3041 32.3595 48.2751L32.1836 48.2481C32.1286 48.2628 32.0782 48.2912 32.037 48.3307C31.9959 48.3702 31.9653 48.4196 31.9481 48.4741C31.8741 48.7078 31.8147 48.946 31.7702 49.1871L31.7195 49.4261C31.7062 49.488 31.6769 49.5452 31.6345 49.5919C31.5921 49.6387 31.5381 49.6732 31.4781 49.6921C31.4182 49.7114 31.3543 49.7144 31.2929 49.7008C31.2315 49.6873 31.1747 49.6578 31.1283 49.6151C30.0352 48.6081 28.4919 46.1521 30.5082 41.0241C30.5236 40.9848 30.5311 40.9428 30.5301 40.9005C30.529 40.8583 30.5196 40.8166 30.5022 40.7781C30.4751 40.7149 30.426 40.6637 30.3641 40.6341L30.1902 40.6031C30.1338 40.6054 30.0793 40.6242 30.0333 40.6572C29.9874 40.6903 29.9521 40.7361 29.9318 40.7891C29.6132 41.5892 29.3606 42.4143 29.1766 43.2561C29.1634 43.3181 29.134 43.3755 29.0916 43.4224C29.0492 43.4693 28.9952 43.5041 28.9351 43.5231C28.875 43.5421 28.8109 43.5449 28.7494 43.5312C28.6878 43.5175 28.6309 43.4878 28.5843 43.4451C27.5906 42.5361 26.1278 40.1741 27.4157 34.5651C27.425 34.5266 27.4266 34.4867 27.4205 34.4475C27.4143 34.4084 27.4005 34.3709 27.3799 34.3371C27.3579 34.3015 27.3289 34.2707 27.2948 34.2467C27.2606 34.2226 27.222 34.2058 27.1812 34.1971L27.1315 34.1901L26.892 34.2491C26.8055 34.2701 26.7144 34.2581 26.6363 34.2154C26.5581 34.1728 26.4984 34.1025 26.4687 34.0181C25.9191 32.5955 25.8038 31.0401 26.1378 29.5511C26.3312 28.895 26.6544 28.2851 27.088 27.7579C27.5215 27.2306 28.0565 26.797 28.6608 26.4831C28.696 26.4661 28.7273 26.4419 28.7528 26.4121C28.7782 26.3824 28.7974 26.3477 28.8089 26.3101C28.8331 26.2243 28.8228 26.1323 28.7801 26.0541C28.7552 26.0125 28.7214 25.9771 28.6812 25.9502C28.641 25.9234 28.5953 25.906 28.5476 25.8991L28.317 25.9631C28.1607 26.0554 28.0091 26.1555 27.8629 26.2631L27.7218 26.3631C27.6637 26.4038 27.5949 26.4262 27.5242 26.4276C27.4535 26.429 27.3839 26.4094 27.3243 26.3711C27.2643 26.3329 27.2169 26.2776 27.1883 26.2123C27.1596 26.1469 27.1509 26.0745 27.1633 26.0041C27.6722 23.6914 29.0572 21.6696 31.0239 20.3681C33.0251 18.7724 34.7151 16.8174 36.0085 14.6021C36.0313 14.5634 36.0613 14.5294 36.0969 14.5021C37.123 13.7049 38.3643 13.2379 39.6584 13.1621C40.0148 13.1609 40.3696 13.2111 40.7118 13.3111C42.261 13.7621 43.4793 15.2581 44.3329 17.7571C44.3455 17.7948 44.3519 17.8344 44.3518 17.8741V54.1421C44.3524 54.213 44.3323 54.2825 44.2942 54.3421C44.1153 54.6201 42.4806 57.0591 40.4256 57.0871H40.4196" fill="#116149"/>
<path d="M47.177 54.0442C47.7732 54.9442 49.0551 56.3532 50.3877 56.3722L50.4265 56.7332V56.3722C51.4947 56.3722 52.5858 55.5052 53.668 53.7952C53.8178 53.5688 54.0484 53.4091 54.312 53.3491C54.5756 53.2892 54.8521 53.3336 55.0841 53.4732C55.2561 53.5882 55.3911 53.7512 55.4726 53.9422C56.2688 53.5391 56.9418 52.9268 57.4203 52.1702C57.6813 51.6671 57.8313 51.1133 57.8603 50.5466C57.8893 49.9799 57.7965 49.4135 57.5883 48.8862C57.545 48.7584 57.5279 48.6232 57.538 48.4886C57.5481 48.3541 57.5851 48.2229 57.6469 48.1032C57.7084 47.9795 57.7941 47.8695 57.8987 47.7799C58.0034 47.6902 58.1249 47.6226 58.256 47.5812L58.5065 47.5352C58.5256 47.5337 58.5449 47.5337 58.5641 47.5352C58.7824 47.5365 58.9948 47.6073 59.1706 47.7376C59.3465 47.8678 59.4768 48.0508 59.5429 48.2602C59.5807 48.3742 59.6135 48.4882 59.6423 48.5992C60.486 47.4992 61.2144 45.3192 59.6423 41.2992C59.5914 41.1702 59.5667 41.0323 59.5694 40.8936C59.5721 40.7548 59.6023 40.618 59.6582 40.4912C59.712 40.3684 59.7897 40.2577 59.8869 40.1658C59.984 40.0739 60.0985 40.0026 60.2236 39.9562C60.244 39.9488 60.2649 39.9431 60.2862 39.9392L60.5347 39.8962C60.555 39.8929 60.5756 39.8912 60.5963 39.8912C60.8011 39.8899 61.0016 39.9503 61.172 40.0647C61.3424 40.1792 61.4748 40.3423 61.5522 40.5332C61.7979 41.1532 62.006 41.7877 62.1753 42.4332C62.8958 41.4332 63.7265 39.2272 62.696 34.7402C62.6647 34.6096 62.6598 34.4741 62.6817 34.3416C62.7035 34.2092 62.7517 34.0825 62.8232 33.9692C62.8956 33.8519 62.9906 33.7503 63.1026 33.6705C63.2145 33.5906 63.3412 33.5341 63.4751 33.5042L63.647 33.4782C63.6864 33.4709 63.7268 33.4709 63.7663 33.4782C64.1893 32.2836 64.2645 30.9923 63.9829 29.7562C63.8141 29.1921 63.5341 28.668 63.1595 28.2152C62.7849 27.7625 62.3234 27.3904 61.8027 27.1212C61.6867 27.0584 61.5842 26.973 61.5013 26.87C61.4184 26.767 61.3567 26.6484 61.3197 26.5212C61.2793 26.3883 61.2658 26.2485 61.2799 26.1103C61.2941 25.972 61.3357 25.838 61.4022 25.7162C61.492 25.5545 61.6229 25.4197 61.7814 25.3255C61.9399 25.2314 62.1204 25.1812 62.3045 25.1802C62.338 25.18 62.3715 25.1843 62.4039 25.1932L62.7328 25.2852C62.0878 23.5241 60.9108 22.0105 59.367 20.9572C57.3067 19.3259 55.5658 17.3232 54.2334 15.0512C53.3397 14.3737 52.2693 13.9728 51.1529 13.8972C50.8651 13.8957 50.5786 13.9361 50.3022 14.0172C48.9955 14.3952 47.9461 15.7172 47.1819 17.9482L47.177 54.0442ZM50.4265 57.0932H50.3827C48.3078 57.0642 46.693 54.6242 46.5161 54.3462C46.479 54.288 46.4594 54.2203 46.4595 54.1512V17.8832C46.4592 17.8434 46.4656 17.8038 46.4784 17.7662C47.325 15.2662 48.5413 13.7662 50.0965 13.3192C50.4378 13.2196 50.7916 13.1698 51.1469 13.1712C52.4414 13.2468 53.683 13.7139 54.7094 14.5112C54.745 14.5388 54.7753 14.5727 54.7989 14.6112C56.0899 16.829 57.7819 18.7843 59.7874 20.3762C61.7287 21.6606 63.1039 23.6482 63.6271 25.9262C63.6481 25.9726 63.659 26.0231 63.6589 26.0742C63.6589 26.1699 63.6212 26.2617 63.5539 26.3294C63.4866 26.3971 63.3954 26.4352 63.3002 26.4352H63.2893C63.2156 26.4351 63.1437 26.412 63.0836 26.3692L62.9355 26.2692C62.7924 26.1692 62.6493 26.0632 62.4923 25.9692L62.2598 25.9052C62.2108 25.9125 62.1641 25.9309 62.1231 25.9589C62.0821 25.987 62.048 26.024 62.0233 26.0672C62.0036 26.1043 61.9914 26.145 61.9875 26.1869C61.9835 26.2288 61.9879 26.271 62.0004 26.3112C62.0111 26.3482 62.0292 26.3827 62.0534 26.4126C62.0777 26.4425 62.1076 26.4672 62.1415 26.4852C62.7468 26.7996 63.2826 27.2339 63.7169 27.762C64.1512 28.2901 64.4749 28.901 64.6686 29.5582C65.0048 31.0477 64.8878 32.6045 64.3327 34.0262C64.3028 34.1105 64.2428 34.1806 64.1644 34.2229C64.086 34.2653 63.9947 34.2768 63.9084 34.2552L63.6758 34.1962L63.6003 34.2072C63.5278 34.2303 63.4663 34.2794 63.4274 34.3452C63.4065 34.3778 63.3923 34.4145 63.3859 34.4528C63.3794 34.4911 63.3807 34.5304 63.3896 34.5682C64.6815 40.1912 63.2128 42.5482 62.222 43.4522C62.1754 43.4952 62.1182 43.5249 62.0564 43.5382C61.9945 43.5516 61.9303 43.5481 61.8702 43.5282C61.8101 43.5087 61.7562 43.4735 61.714 43.4263C61.6717 43.379 61.6427 43.3214 61.6298 43.2592C61.4503 42.4186 61.1999 41.595 60.8815 40.7972C60.86 40.7434 60.8235 40.697 60.7765 40.6637C60.7294 40.6303 60.6737 40.6114 60.6161 40.6092L60.4413 40.6402C60.3816 40.6692 60.3343 40.7189 60.3081 40.7802C60.2919 40.8195 60.2836 40.8616 60.2836 40.9042C60.2836 40.9467 60.2919 40.9889 60.3081 41.0282C62.3234 46.1692 60.7811 48.6182 59.683 49.6212C59.6364 49.6644 59.579 49.6943 59.5169 49.7075C59.4548 49.7206 59.3903 49.7168 59.3303 49.6962C59.27 49.6767 59.2159 49.6414 59.1737 49.594C59.1314 49.5465 59.1024 49.4886 59.0898 49.4262L59.0649 49.3002C59.0164 49.0238 58.95 48.7509 58.8662 48.4832C58.8485 48.4222 58.8129 48.3681 58.7642 48.3278C58.7154 48.2875 58.6558 48.2629 58.5929 48.2572L58.4289 48.2842C58.37 48.3196 58.3225 48.3714 58.2918 48.4332C58.2738 48.4686 58.2629 48.5072 58.2598 48.5469C58.2567 48.5865 58.2615 48.6264 58.2739 48.6642C58.5159 49.2881 58.6208 49.9573 58.5813 50.6259C58.5419 51.2944 58.359 51.9465 58.0454 52.5372C57.3944 53.5556 56.4535 54.3529 55.3454 54.8252C55.2858 54.8534 55.2197 54.8647 55.1542 54.8579C55.0887 54.851 55.0263 54.8262 54.9738 54.7862C54.9212 54.7458 54.8807 54.6915 54.8568 54.6294C54.833 54.5672 54.8267 54.4997 54.8386 54.4342C54.8522 54.3683 54.8461 54.2999 54.821 54.2376C54.7959 54.1752 54.7529 54.1218 54.6975 54.0842C54.6273 54.0482 54.5467 54.0385 54.47 54.0568C54.3934 54.0751 54.3257 54.1203 54.2791 54.1842C53.0539 56.1192 51.76 57.0982 50.4304 57.0982" fill="white"/>
<path d="M52.3652 54.8371C52.3028 54.838 52.2412 54.8226 52.1864 54.7922C52.1317 54.7619 52.0858 54.7177 52.0532 54.6641C52.0288 54.6253 52.0122 54.5819 52.0044 54.5366C51.9967 54.4913 51.9978 54.4449 52.0079 54.4C52.018 54.3552 52.0367 54.3128 52.0631 54.2752C52.0894 54.2376 52.1229 54.2057 52.1615 54.1811C52.6458 53.9331 53.0695 53.5803 53.4023 53.1481C53.735 52.7159 53.9687 52.2149 54.0864 51.6811C54.1285 51.1832 54.071 50.6818 53.9174 50.2066C53.7638 49.7313 53.5171 49.2919 53.192 48.9141C53.1441 48.8511 53.1181 48.774 53.1181 48.6946C53.1181 48.6153 53.1441 48.5381 53.192 48.4751C53.2403 48.4126 53.3079 48.3679 53.3841 48.348C53.4603 48.3281 53.5409 48.3341 53.6134 48.3651C53.6772 48.3964 53.7493 48.4066 53.8193 48.3942C53.8892 48.3818 53.9535 48.3475 54.0029 48.2961C54.2911 47.9331 56.8142 44.5881 54.8496 41.1351C54.834 41.1078 54.822 41.0785 54.8138 41.0481C54.601 40.231 54.4797 39.3924 54.4521 38.5481C54.4514 38.5007 54.46 38.4536 54.4775 38.4096C54.4949 38.3655 54.5208 38.3254 54.5536 38.2914C54.5865 38.2574 54.6256 38.2303 54.6689 38.2115C54.7122 38.1928 54.7587 38.1828 54.8058 38.1821C54.9001 38.1821 54.9906 38.2195 55.0578 38.2861C55.1249 38.3527 55.1633 38.4433 55.1646 38.5381C55.1894 39.3083 55.299 40.0733 55.4915 40.8191C57.6469 44.6701 54.8764 48.3461 54.5524 48.7541C54.4428 48.8881 54.3008 48.9914 54.14 49.0541C54.6698 49.8596 54.9 50.8275 54.7899 51.7871C54.6586 52.4232 54.3889 53.022 54.0002 53.5407C53.6116 54.0594 53.1136 54.4851 52.5421 54.7871C52.4861 54.8181 52.4232 54.8343 52.3593 54.8341L52.3652 54.8371ZM50.6411 52.2611C50.4648 52.2614 50.2916 52.2145 50.1393 52.1251C50.0213 52.0563 49.9181 51.9645 49.8357 51.8551C49.7533 51.7458 49.6933 51.621 49.6593 51.4881C49.6414 51.4231 47.8537 44.5961 49.8581 39.7361C49.9312 39.5446 50.0611 39.3804 50.2302 39.2658C50.3992 39.1511 50.5992 39.0915 50.8031 39.0951C50.8982 39.0951 50.9895 39.1332 51.0568 39.2009C51.124 39.2686 51.1618 39.3604 51.1618 39.4561C51.1618 39.5519 51.124 39.6437 51.0568 39.7114C50.9895 39.7791 50.8982 39.8171 50.8031 39.8171C50.7437 39.8153 50.6851 39.832 50.6355 39.8649C50.5858 39.8978 50.5475 39.9454 50.5258 40.0011C48.6079 44.6471 50.335 51.2381 50.3529 51.3011C50.3621 51.3419 50.3797 51.3804 50.4045 51.414C50.4293 51.4475 50.4608 51.4755 50.497 51.4961C50.5311 51.5155 50.5687 51.528 50.6075 51.5328C50.6464 51.5376 50.6859 51.5347 50.7236 51.5241C50.7689 51.5111 50.8164 51.5072 50.8633 51.5127C50.9101 51.5182 50.9554 51.533 50.9965 51.5563C51.0377 51.5795 51.0738 51.6107 51.1029 51.6481C51.1319 51.6855 51.1533 51.7284 51.1658 51.7741C51.1915 51.8663 51.1797 51.9649 51.1331 52.0484C51.0866 52.1318 51.0089 52.1932 50.9174 52.2191C50.8274 52.2443 50.7345 52.2571 50.6411 52.2571" fill="white" fill-opacity="0.81"/>
<path d="M52.1029 23.019C52.0847 23.0204 52.0665 23.0204 52.0483 23.019C50.9715 22.8229 49.9717 22.3246 49.1642 21.5815C48.3567 20.8384 47.7743 19.8808 47.4841 18.819C47.4721 18.7731 47.4692 18.7253 47.4756 18.6783C47.482 18.6313 47.4976 18.586 47.5214 18.5451C47.5452 18.5041 47.5768 18.4683 47.6144 18.4396C47.652 18.4109 47.6948 18.39 47.7404 18.378C47.7861 18.3659 47.8336 18.3629 47.8804 18.3692C47.9271 18.3756 47.9722 18.3913 48.0129 18.4153C48.0537 18.4392 48.0893 18.4711 48.1177 18.509C48.1462 18.5469 48.1669 18.5901 48.1787 18.636C48.4306 19.5623 48.9374 20.3982 49.6406 21.0475C50.3438 21.6967 51.2149 22.133 52.1536 22.306C52.2471 22.3211 52.331 22.3727 52.3868 22.4497C52.4427 22.5267 52.466 22.6228 52.4517 22.717C52.4387 22.8021 52.3959 22.8797 52.331 22.9358C52.2661 22.9919 52.1835 23.0229 52.0979 23.023L52.1029 23.019ZM57.7523 21.376C57.6903 21.3761 57.6293 21.3601 57.5753 21.3294C57.5213 21.2987 57.4761 21.2545 57.4442 21.201C57.311 20.976 54.1281 15.701 51.2185 15.701C51.056 15.7 50.8938 15.7158 50.7345 15.748C50.6884 15.7575 50.6409 15.7577 50.5946 15.7487C50.5484 15.7396 50.5044 15.7215 50.4652 15.6953C50.426 15.6691 50.3922 15.6354 50.366 15.596C50.3397 15.5567 50.3215 15.5125 50.3122 15.466C50.2935 15.3723 50.3124 15.2749 50.365 15.1952C50.4175 15.1155 50.4993 15.0601 50.5924 15.041C50.7985 14.9988 51.0082 14.978 51.2185 14.979C54.4739 14.979 57.7016 20.231 58.0593 20.829C58.0843 20.8699 58.1009 20.9153 58.1082 20.9627C58.1156 21.0101 58.1134 21.0585 58.1019 21.1051C58.0905 21.1516 58.0699 21.1954 58.0414 21.2338C58.0129 21.2723 57.9771 21.3047 57.9361 21.329C57.8807 21.3629 57.8171 21.3808 57.7523 21.381V21.376ZM62.6235 36.418C62.5306 36.419 62.4409 36.3831 62.3741 36.318C62.3602 36.303 60.9163 34.797 61.2164 30.454L61.2055 30.374C61.2055 30.349 60.5268 25.934 57.9917 25.595H57.9291C57.8343 25.5899 57.7454 25.5471 57.6819 25.476C57.6183 25.405 57.5854 25.3115 57.5903 25.216C57.5969 25.1211 57.6399 25.0324 57.7101 24.9686C57.7803 24.9049 57.8724 24.871 57.9669 24.874H58.0583C61.1965 25.293 61.912 30.242 61.918 30.292L61.9319 30.446C61.6646 34.39 62.8789 35.799 62.8908 35.813C62.9535 35.8833 62.9866 35.9753 62.9833 36.0697C62.9799 36.164 62.9404 36.2534 62.8729 36.319C62.8061 36.3834 62.717 36.4192 62.6245 36.419L62.6235 36.418ZM58.4638 35.324C58.3686 35.324 58.2774 35.286 58.2101 35.2183C58.1428 35.1506 58.105 35.0588 58.105 34.963C58.105 34.936 58.0593 32.175 55.0791 28.823C55.0477 28.7877 55.0234 28.7465 55.0078 28.7018C54.9921 28.657 54.9854 28.6096 54.988 28.5622C54.9906 28.5149 55.0024 28.4685 55.0228 28.4257C55.0432 28.383 55.0718 28.3447 55.107 28.313C55.142 28.2812 55.1829 28.2567 55.2274 28.2409C55.2719 28.2251 55.319 28.2183 55.3661 28.2209C55.4132 28.2235 55.4594 28.2355 55.5019 28.2561C55.5444 28.2767 55.5824 28.3056 55.6138 28.341C58.7857 31.91 58.8235 34.932 58.8235 34.962C58.8235 35.0578 58.7857 35.1496 58.7184 35.2173C58.6512 35.285 58.5599 35.323 58.4648 35.323L58.4638 35.324ZM48.8484 27.459C48.7801 27.4591 48.7131 27.4393 48.6557 27.402C48.6157 27.3765 48.5812 27.3433 48.5541 27.3043C48.5271 27.2653 48.5079 27.2213 48.4978 27.1748C48.4878 27.1283 48.487 27.0802 48.4955 27.0334C48.504 26.9866 48.5216 26.942 48.5473 26.902C48.7643 26.5393 49.0577 26.2289 49.407 25.9928C49.7563 25.7568 50.1528 25.6008 50.5686 25.536C50.7228 25.5095 50.8792 25.4974 51.0356 25.5C51.5694 25.5094 52.0964 25.6207 52.5888 25.828C52.5844 25.3482 52.675 24.8723 52.8552 24.428C53.4931 22.885 55.0871 22.036 57.5933 21.903L57.6449 22.263V22.624C55.4249 22.74 54.0407 23.441 53.517 24.706C53.3109 25.234 53.2501 25.8082 53.3411 26.368C53.3498 26.4339 53.3402 26.5009 53.3133 26.5616C53.2865 26.6224 53.2435 26.6744 53.1891 26.712C53.1347 26.7497 53.0711 26.7716 53.0052 26.7753C52.9393 26.779 52.8736 26.7644 52.8154 26.733C52.2717 26.4213 51.661 26.2466 51.0356 26.224C50.9202 26.2217 50.8048 26.2301 50.6908 26.249C50.3736 26.2987 50.0711 26.4181 49.8049 26.5987C49.5387 26.7793 49.3153 27.0167 49.1505 27.294C49.1186 27.3445 49.0745 27.3862 49.0224 27.4152C48.9704 27.4442 48.9119 27.4596 48.8524 27.46" fill="white"/>
<path d="M57.5466 38.2672C56.1961 38.2672 55.3822 36.8322 54.7075 35.6452C54.2941 34.9172 53.8668 34.1642 53.4673 34.0452C53.4117 34.0302 53.2 33.9732 52.7916 34.2602C52.7137 34.3141 52.6178 34.3349 52.5248 34.318C52.4317 34.3012 52.3491 34.248 52.2947 34.1702C52.2411 34.0919 52.2202 33.9955 52.2368 33.9019C52.2534 33.8083 52.306 33.725 52.3832 33.6702C52.5589 33.5232 52.7655 33.4182 52.9873 33.3631C53.2092 33.308 53.4406 33.3043 53.6641 33.3522C54.3508 33.5622 54.8049 34.3642 55.3316 35.2932C56.1951 36.8142 56.8957 37.8582 58.0514 37.4582C58.0959 37.4425 58.1432 37.4358 58.1903 37.4386C58.2374 37.4413 58.2835 37.4535 58.326 37.4743C58.3684 37.4952 58.4063 37.5243 58.4374 37.5599C58.4686 37.5956 58.4924 37.6372 58.5075 37.6822C58.5229 37.727 58.5293 37.7745 58.5264 37.8218C58.5235 37.8692 58.5114 37.9155 58.4907 37.9581C58.4701 38.0007 58.4413 38.0388 58.4059 38.0703C58.3706 38.1017 58.3295 38.1258 58.2849 38.1412C58.0482 38.2266 57.799 38.2716 57.5476 38.2742L57.5466 38.2672ZM47.7057 38.3462C47.6124 38.346 47.5195 38.3336 47.4294 38.3092C47.3376 38.2843 47.2593 38.2238 47.2118 38.141C47.1643 38.0581 47.1514 37.9596 47.176 37.8672C47.2009 37.7749 47.2611 37.6963 47.3434 37.6486C47.4257 37.6008 47.5234 37.5877 47.6153 37.6122C47.6559 37.624 47.6984 37.6275 47.7404 37.6225C47.7824 37.6176 47.8229 37.6042 47.8597 37.5832C47.8945 37.563 47.925 37.5361 47.9494 37.504C47.9737 37.4719 47.9916 37.4353 48.0018 37.3962C48.3993 35.9612 51.3616 36.3702 51.3904 36.3742C51.4838 36.3892 51.5675 36.4407 51.6233 36.5175C51.6791 36.5943 51.7026 36.6901 51.6885 36.7842C51.6727 36.8777 51.6213 36.9612 51.5452 37.0172C51.4692 37.0732 51.3745 37.0972 51.2811 37.0842C50.4861 36.9632 48.8445 37.0302 48.6905 37.5842C48.6559 37.7144 48.5961 37.8364 48.5144 37.9432C48.4327 38.0499 48.3307 38.1393 48.2145 38.2062C48.0586 38.2968 47.8817 38.3445 47.7017 38.3442" fill="white" fill-opacity="0.81"/>
<path d="M36.2698 53.3141C36.4441 53.313 36.6158 53.3567 36.7686 53.4413C36.9213 53.5258 37.05 53.6483 37.1423 53.7971C38.2265 55.5031 39.3186 56.3701 40.3878 56.3701L40.4236 56.7311V56.3701C41.7453 56.3521 43.0391 54.9381 43.6413 54.0411V17.9411C42.8702 15.7111 41.8198 14.3881 40.517 14.0101C40.2403 13.9293 39.9535 13.8888 39.6654 13.8901C38.5489 13.966 37.4785 14.3674 36.5848 15.0451C35.25 17.3122 33.5114 19.3123 31.4562 20.9451C29.9142 22.0008 28.7371 23.5135 28.0884 25.2731L28.4144 25.1811C28.4468 25.1724 28.4802 25.168 28.5138 25.1681C28.6958 25.1698 28.8743 25.2195 29.0312 25.3123C29.1882 25.4052 29.3181 25.5379 29.4081 25.6971C29.4757 25.8209 29.5182 25.9569 29.5332 26.0973C29.5482 26.2377 29.5354 26.3797 29.4956 26.5151C29.4577 26.643 29.3947 26.762 29.3104 26.8651C29.2261 26.9681 29.1221 27.0532 29.0047 27.1151C28.485 27.3837 28.0244 27.7549 27.6505 28.2066C27.2766 28.6583 26.997 29.1812 26.8284 29.7441C26.549 30.9806 26.6234 32.2715 27.043 33.4671C27.0838 33.4599 27.1255 33.4599 27.1663 33.4671L27.3123 33.4891C27.451 33.5163 27.5827 33.5717 27.6992 33.652C27.8158 33.7324 27.9148 33.8358 27.9901 33.9561C28.0613 34.0707 28.1091 34.1985 28.1304 34.332C28.1517 34.4654 28.1463 34.6018 28.1143 34.7331C27.0868 39.2111 27.9205 41.4211 28.64 42.4221C28.8106 41.7769 29.0194 41.1424 29.265 40.5221C29.3399 40.3301 29.471 40.1655 29.6411 40.0503C29.8111 39.9351 30.012 39.8747 30.217 39.8771C30.2377 39.8772 30.2583 39.8789 30.2786 39.8821L30.5261 39.9251C30.5474 39.9291 30.5683 39.9348 30.5887 39.9421C30.7145 39.9885 30.8297 40.0599 30.9274 40.1522C31.0251 40.2445 31.1032 40.3557 31.1571 40.4791C31.2131 40.6057 31.2435 40.7423 31.2466 40.8808C31.2497 41.0194 31.2253 41.1571 31.175 41.2861C29.5949 45.3031 30.3224 47.4861 31.166 48.5861C31.1948 48.4721 31.2276 48.3571 31.2654 48.2391C31.333 48.0331 31.4627 47.8534 31.6366 47.7251C31.8104 47.5967 32.0197 47.5261 32.2353 47.5231L32.5006 47.5601C32.5195 47.5635 32.5381 47.5682 32.5563 47.5741C32.6845 47.6159 32.8032 47.6828 32.9056 47.771C33.0079 47.8592 33.0918 47.967 33.1525 48.0881C33.2147 48.2093 33.2523 48.3418 33.2632 48.4777C33.2742 48.6137 33.2581 48.7505 33.2161 48.8801C33.0078 49.4079 32.9151 49.9747 32.9445 50.5418C32.9738 51.1089 33.1244 51.663 33.386 52.1661C33.8645 52.9218 34.5376 53.5329 35.3337 53.9341C35.4132 53.7458 35.5459 53.5852 35.7153 53.4721C35.8802 53.3657 36.0719 53.3091 36.2678 53.3091L36.2698 53.3141ZM40.4236 57.0921H40.3878C39.0592 57.0921 37.7624 56.1131 36.5361 54.1821C36.4908 54.1137 36.4213 54.0653 36.3417 54.0467C36.2621 54.0282 36.1785 54.0408 36.1078 54.0821C36.0548 54.1192 36.014 54.1714 35.9906 54.2319C35.9672 54.2925 35.9624 54.3588 35.9767 54.4221C35.9896 54.4878 35.9841 54.5558 35.9608 54.6186C35.9374 54.6813 35.8972 54.7362 35.8445 54.7771C35.792 54.8183 35.7292 54.8441 35.6631 54.8515C35.597 54.8589 35.5301 54.8477 35.4699 54.8191C34.3614 54.3481 33.4198 53.5518 32.7679 52.5341C32.454 51.9441 32.2707 51.2927 32.2307 50.6247C32.1908 49.9566 32.295 49.2878 32.5364 48.6641C32.5492 48.6246 32.554 48.583 32.5506 48.5416C32.5472 48.5002 32.5356 48.4599 32.5165 48.4231C32.4833 48.3566 32.4277 48.3041 32.3595 48.2751L32.1836 48.2481C32.1286 48.2628 32.0782 48.2912 32.037 48.3307C31.9959 48.3702 31.9653 48.4196 31.9481 48.4741C31.8741 48.7078 31.8147 48.946 31.7702 49.1871L31.7195 49.4261C31.7062 49.488 31.6769 49.5452 31.6345 49.5919C31.5921 49.6387 31.5381 49.6732 31.4781 49.6921C31.4182 49.7114 31.3543 49.7144 31.2929 49.7008C31.2315 49.6873 31.1747 49.6578 31.1283 49.6151C30.0352 48.6081 28.4919 46.1531 30.5082 41.0241C30.5236 40.9848 30.5311 40.9428 30.5301 40.9005C30.529 40.8583 30.5196 40.8166 30.5022 40.7781C30.4751 40.7149 30.426 40.6637 30.3641 40.6341L30.1902 40.6031C30.1338 40.6054 30.0793 40.6242 30.0333 40.6572C29.9874 40.6903 29.9521 40.7361 29.9318 40.7891C29.6132 41.5892 29.3606 42.4143 29.1766 43.2561C29.1634 43.3181 29.134 43.3755 29.0916 43.4224C29.0492 43.4693 28.9952 43.5041 28.9351 43.5231C28.875 43.5421 28.8109 43.5449 28.7494 43.5312C28.6878 43.5175 28.6309 43.4878 28.5843 43.4451C27.5906 42.5361 26.1278 40.1741 27.4157 34.5651C27.425 34.5266 27.4266 34.4867 27.4205 34.4475C27.4143 34.4084 27.4005 34.3709 27.3799 34.3371C27.3579 34.3015 27.3289 34.2707 27.2948 34.2467C27.2606 34.2226 27.222 34.2058 27.1812 34.1971L27.1315 34.1901L26.892 34.2491C26.8055 34.2701 26.7144 34.2581 26.6363 34.2154C26.5581 34.1728 26.4984 34.1025 26.4687 34.0181C25.9191 32.5955 25.8038 31.0401 26.1378 29.5511C26.3312 28.895 26.6544 28.2851 27.088 27.7579C27.5215 27.2306 28.0565 26.797 28.6608 26.4831C28.696 26.4661 28.7273 26.4419 28.7528 26.4121C28.7782 26.3824 28.7974 26.3477 28.8089 26.3101C28.8331 26.2243 28.8228 26.1323 28.7801 26.0541C28.7552 26.0125 28.7214 25.9771 28.6812 25.9502C28.641 25.9234 28.5953 25.906 28.5476 25.8991L28.317 25.9631C28.1606 26.0552 28.009 26.1554 27.8629 26.2631L27.7218 26.3631C27.6637 26.4038 27.5949 26.4262 27.5242 26.4276C27.4535 26.429 27.3839 26.4094 27.3243 26.3711C27.2643 26.3329 27.2169 26.2776 27.1883 26.2123C27.1596 26.1469 27.1509 26.0745 27.1633 26.0041C27.6722 23.6914 29.0572 21.6696 31.0239 20.3681C33.0251 18.7724 34.7151 16.8174 36.0085 14.6021C36.0313 14.5634 36.0613 14.5294 36.0969 14.5021C37.123 13.7049 38.3643 13.2379 39.6584 13.1621C40.0148 13.1609 40.3696 13.2111 40.7118 13.3111C42.261 13.7621 43.4793 15.2581 44.3329 17.7571C44.3455 17.7948 44.3519 17.8344 44.3518 17.8741V54.1421C44.3524 54.213 44.3323 54.2825 44.2942 54.3421C44.1153 54.6201 42.4806 57.0591 40.4256 57.0871H40.4196" fill="white"/>
<path d="M38.2802 54.8001C37.7014 54.5013 37.197 54.0749 36.8045 53.5527C36.4121 53.0305 36.1417 52.426 36.0135 51.7841C35.9041 50.825 36.1331 49.8577 36.6604 49.0511C36.5056 48.9901 36.3688 48.8902 36.2629 48.7611C35.933 48.3421 33.1824 44.6491 35.3159 40.8221C35.5046 40.0745 35.6142 39.3089 35.6429 38.5381C35.6449 38.4438 35.6837 38.354 35.7507 38.288C35.8178 38.222 35.9078 38.1851 36.0016 38.1851H36.0095C36.0566 38.186 36.103 38.1963 36.1462 38.2153C36.1893 38.2343 36.2283 38.2617 36.2609 38.2959C36.2934 38.33 36.319 38.3704 36.3361 38.4145C36.3531 38.4587 36.3614 38.5058 36.3603 38.5531C36.3311 39.3973 36.2098 40.2356 35.9986 41.0531C35.9903 41.0835 35.9783 41.1127 35.9628 41.1401C34.0151 44.5711 36.5253 47.9341 36.8184 48.3061C36.865 48.3551 36.9259 48.3878 36.9922 48.3995C37.0585 48.4112 37.1268 48.4012 37.1871 48.3711C37.2597 48.3396 37.3406 48.3329 37.4173 48.3523C37.494 48.3716 37.5622 48.4158 37.6114 48.4781C37.6606 48.5404 37.688 48.6174 37.6892 48.6969C37.6905 48.7765 37.6656 48.8543 37.6184 48.9181C37.2942 49.2967 37.0481 49.7364 36.8946 50.2116C36.741 50.6869 36.6831 51.1881 36.724 51.6861C36.8352 52.2151 37.0624 52.7124 37.3891 53.1416C37.7158 53.5709 38.1336 53.9212 38.6121 54.1671L38.2772 54.8051L38.2802 54.8001ZM40.1683 52.2611C40.0746 52.2614 39.9813 52.2486 39.8911 52.2231C39.7996 52.197 39.7222 52.1356 39.6756 52.0522C39.6291 51.9688 39.6172 51.8703 39.6426 51.7781C39.655 51.7323 39.6763 51.6894 39.7054 51.6519C39.7344 51.6144 39.7705 51.5832 39.8117 51.5599C39.8528 51.5366 39.8982 51.5218 39.9451 51.5164C39.992 51.5109 40.0395 51.5149 40.0848 51.5281C40.1233 51.5389 40.1635 51.5418 40.2031 51.5367C40.2427 51.5315 40.2809 51.5184 40.3154 51.4981C40.3498 51.4783 40.3798 51.4515 40.4036 51.4195C40.4274 51.3876 40.4443 51.351 40.4535 51.3121C40.4744 51.2371 42.2074 44.6671 40.2875 40.0121C40.2661 39.9544 40.2275 39.9047 40.177 39.8698C40.1265 39.8349 40.0666 39.8165 40.0053 39.8171C39.9102 39.8171 39.8189 39.7791 39.7517 39.7114C39.6844 39.6437 39.6466 39.5519 39.6466 39.4561C39.6466 39.3604 39.6844 39.2686 39.7517 39.2009C39.8189 39.1332 39.9102 39.0951 40.0053 39.0951C40.2106 39.0928 40.4116 39.154 40.5812 39.2705C40.7507 39.3869 40.8807 39.5529 40.9534 39.7461C42.9617 44.6171 41.166 51.4241 41.1521 51.4921C41.119 51.6232 41.0603 51.7463 40.9794 51.8543C40.8985 51.9623 40.7971 52.053 40.6811 52.1211C40.5269 52.2127 40.3513 52.261 40.1723 52.2611H40.1683ZM38.7065 23.0191C38.621 23.0187 38.5385 22.9877 38.4737 22.9317C38.4088 22.8756 38.366 22.7981 38.3528 22.7131C38.3385 22.6189 38.3618 22.5228 38.4176 22.4458C38.4735 22.3688 38.5573 22.3171 38.6509 22.3021C39.5896 22.1291 40.4607 21.6928 41.1639 21.0435C41.8671 20.3943 42.3738 19.5584 42.6258 18.6321C42.6377 18.5862 42.6585 18.5431 42.687 18.5053C42.7154 18.4675 42.7511 18.4357 42.7918 18.4117C42.8325 18.3877 42.8775 18.3721 42.9242 18.3656C42.9709 18.3592 43.0184 18.3621 43.064 18.3741C43.1097 18.3861 43.1525 18.407 43.1901 18.4357C43.2277 18.4643 43.2593 18.5002 43.2831 18.5411C43.3069 18.5821 43.3224 18.6274 43.3289 18.6744C43.3353 18.7214 43.3324 18.7692 43.3204 18.8151C43.0301 19.8766 42.4477 20.834 41.6404 21.577C40.8331 22.3201 39.8337 22.8186 38.7572 23.0151C38.7387 23.0165 38.7201 23.0165 38.7016 23.0151L38.7065 23.0191ZM33.0602 21.3761C32.995 21.3763 32.931 21.3583 32.8753 21.3241C32.8343 21.2998 32.7985 21.2674 32.77 21.2289C32.7415 21.1904 32.721 21.1466 32.7096 21.1C32.6982 21.0534 32.6962 21.005 32.7037 20.9577C32.7112 20.9103 32.728 20.8649 32.7531 20.8241C33.1118 20.2241 36.3524 14.9741 39.59 14.9741C39.8018 14.9736 40.0132 14.9944 40.221 15.0361C40.2672 15.0455 40.311 15.0641 40.3501 15.0906C40.3892 15.1171 40.4226 15.1512 40.4486 15.1907C40.4745 15.2303 40.4924 15.2747 40.5013 15.3212C40.5102 15.3678 40.5098 15.4157 40.5002 15.4621C40.4811 15.5559 40.4257 15.6381 40.3463 15.6908C40.267 15.7435 40.17 15.7623 40.0769 15.7431C39.9165 15.7111 39.7534 15.6954 39.59 15.6961C37.2805 15.6961 34.5925 19.1531 33.3672 21.1961C33.3352 21.2493 33.2902 21.2932 33.2364 21.3237C33.1826 21.3542 33.1219 21.3702 33.0602 21.3701V21.3761ZM28.1859 36.4181C28.1007 36.4184 28.0182 36.3879 27.9534 36.3321C27.9175 36.3015 27.888 36.264 27.8665 36.2219C27.8451 36.1798 27.8321 36.1338 27.8283 36.0866C27.8245 36.0394 27.83 35.992 27.8445 35.9469C27.859 35.9019 27.8821 35.8602 27.9126 35.8241C27.9653 35.7621 29.1429 34.3341 28.8835 30.4991L28.8895 30.3241C28.8984 30.2411 29.607 25.2921 32.7213 24.8751L32.8425 24.8671C32.8896 24.8646 32.9367 24.8714 32.9812 24.8872C33.0256 24.903 33.0665 24.9276 33.1015 24.9593C33.1365 24.9911 33.1649 25.0295 33.1851 25.0724C33.2053 25.1153 33.2169 25.1617 33.2192 25.2091C33.224 25.3046 33.1911 25.3981 33.1276 25.4691C33.0641 25.5402 32.9751 25.583 32.8803 25.5881L32.7879 25.5931C30.2777 25.9291 29.6079 30.3441 29.603 30.3931V30.4931C29.8763 34.5111 28.6092 36.1241 28.4622 36.2931C28.4283 36.3327 28.3864 36.3645 28.3392 36.3862C28.2921 36.408 28.2408 36.4192 28.1889 36.4191L28.1859 36.4181ZM32.3447 35.3241C32.2498 35.3241 32.1588 35.2862 32.0917 35.2187C32.0246 35.1512 31.9869 35.0596 31.9869 34.9641C31.9869 34.9341 32.0237 31.9091 35.2026 28.3431C35.2663 28.272 35.3553 28.2291 35.4503 28.2238C35.5453 28.2186 35.6384 28.2514 35.7094 28.3151C35.7801 28.3792 35.8228 28.4688 35.828 28.5644C35.8332 28.6599 35.8006 28.7537 35.7373 28.8251C32.7501 32.1771 32.7054 34.9381 32.7054 34.9651C32.7051 35.0607 32.6672 35.1523 32.6 35.2197C32.5327 35.2872 32.4416 35.3251 32.3467 35.3251L32.3447 35.3241ZM41.965 27.4591C41.9056 27.4586 41.8473 27.4433 41.7952 27.4145C41.7432 27.3857 41.6991 27.3443 41.6668 27.2941C41.5031 27.0186 41.2815 26.7825 41.0175 26.6023C40.7534 26.4221 40.4534 26.3022 40.1385 26.2511C40.0191 26.2302 39.898 26.2209 39.7768 26.2231C39.151 26.2459 38.5399 26.4208 37.996 26.7331C37.9377 26.7643 37.872 26.7788 37.8061 26.7749C37.7402 26.771 37.6766 26.7489 37.6224 26.7111C37.5682 26.6733 37.5255 26.6212 37.4988 26.5605C37.4722 26.4998 37.4627 26.4329 37.4713 26.3671C37.5658 25.809 37.506 25.2354 37.2984 24.7091C36.7737 23.4401 35.3885 22.7401 33.1814 22.6231C33.0867 22.6188 32.9972 22.5779 32.9315 22.5091C32.8659 22.4402 32.829 22.3486 32.8286 22.2531C32.8284 22.1605 32.8646 22.0715 32.9294 22.0057C32.9943 21.9399 33.0824 21.9027 33.1744 21.9021C35.7263 22.0351 37.3213 22.8851 37.9602 24.4281C38.1445 24.8712 38.2355 25.3479 38.2276 25.8281C38.7185 25.6196 39.2449 25.5086 39.7778 25.5011C39.9389 25.4987 40.0999 25.5114 40.2587 25.5391C40.6724 25.6054 41.0667 25.7615 41.4142 25.9968C41.7617 26.232 42.0541 26.5406 42.271 26.9011C42.3227 26.9817 42.3405 27.0795 42.3206 27.1733C42.3007 27.267 42.2446 27.3489 42.1647 27.4011C42.1055 27.4395 42.0364 27.4596 41.966 27.4591H41.965ZM33.2619 38.2671C33.0104 38.2647 32.7612 38.2197 32.5245 38.1341C32.48 38.1187 32.4389 38.0946 32.4036 38.0632C32.3683 38.0318 32.3396 37.9936 32.319 37.951C32.2984 37.9083 32.2864 37.862 32.2836 37.8147C32.2809 37.7673 32.2874 37.7199 32.3029 37.6751C32.3181 37.6302 32.342 37.5887 32.3732 37.5531C32.4044 37.5175 32.4423 37.4885 32.4847 37.4676C32.5271 37.4468 32.5731 37.4346 32.6202 37.4318C32.6673 37.429 32.7145 37.4355 32.7591 37.4511C33.9158 37.8511 34.6153 36.8081 35.4789 35.2861C36.0056 34.3581 36.4607 33.5561 37.1325 33.3491C37.359 33.3002 37.5935 33.303 37.8188 33.3573C38.0441 33.4117 38.2544 33.5162 38.4342 33.6631C38.5115 33.718 38.5641 33.8012 38.5806 33.8948C38.5972 33.9885 38.5764 34.0849 38.5227 34.1631C38.4684 34.241 38.3857 34.2941 38.2927 34.311C38.1996 34.3278 38.1037 34.307 38.0258 34.2531C37.9321 34.1692 37.8213 34.1067 37.7012 34.0701C37.5811 34.0335 37.4545 34.0236 37.3302 34.0411C36.9446 34.1601 36.5173 34.9131 36.104 35.6411C35.4302 36.8291 34.6134 38.2641 33.2649 38.2641L33.2619 38.2671ZM43.1028 38.3471C42.9228 38.3474 42.7459 38.2998 42.59 38.2091C42.4733 38.1419 42.3711 38.0519 42.2894 37.9444C42.2076 37.8369 42.148 37.7141 42.114 37.5831C41.963 37.0301 40.3253 36.9651 39.5303 37.0831C39.4367 37.0973 39.3414 37.0737 39.2649 37.0175C39.1884 36.9614 39.1371 36.8771 39.1219 36.7831C39.1076 36.6889 39.1309 36.5928 39.1868 36.5158C39.2426 36.4388 39.3265 36.3871 39.42 36.3721C39.4488 36.3671 42.4161 35.9781 42.8037 37.3921C42.8135 37.4316 42.831 37.4688 42.8553 37.5014C42.8795 37.534 42.9099 37.5615 42.9448 37.5821C43.0187 37.6235 43.1058 37.6339 43.1873 37.6111C43.2327 37.5986 43.2802 37.5952 43.327 37.6012C43.3738 37.6072 43.4189 37.6224 43.4599 37.646C43.5008 37.6696 43.5366 37.7011 43.5654 37.7387C43.5942 37.7763 43.6153 37.8193 43.6275 37.8651C43.64 37.9109 43.6433 37.9587 43.6374 38.0058C43.6314 38.0529 43.6163 38.0983 43.5928 38.1395C43.5694 38.1806 43.5381 38.2167 43.5007 38.2457C43.4633 38.2746 43.4206 38.2958 43.3751 38.3081C43.2851 38.333 43.1922 38.3458 43.0988 38.3461" fill="white"/>
<defs>
<filter id="filter0_d_3_56" x="0.417969" y="0" width="81.561" height="83" filterUnits="userSpaceOnUse" color-interpolation-filters="sRGB">
<feFlood flood-opacity="0" result="BackgroundImageFix"/>
<feColorMatrix in="SourceAlpha" type="matrix" values="0 0 0 0 0 0 0 0 0 0 0 0 0 0 0 0 0 0 127 0" result="hardAlpha"/>
<feOffset dx="-4" dy="7"/>
<feGaussianBlur stdDeviation="3"/>
<feColorMatrix type="matrix" values="0 0 0 0 0.168627 0 0 0 0 0.431373 0 0 0 0 0.278431 0 0 0 0.4 0"/>
<feBlend mode="normal" in2="BackgroundImageFix" result="effect1_dropShadow_3_56"/>
<feBlend mode="normal" in="SourceGraphic" in2="effect1_dropShadow_3_56" result="shape"/>
</filter>
</defs>
</svg>
